<svg width="112" height="53" viewBox="0 0 112 53" fill="none" xmlns="http://www.w3.org/2000/svg">
<rect x="0.5" y="0.5" width="101" height="43" rx="9.5" fill="#1A1A1A" stroke="#252525"/>
<path d="M40.42 29L44.42 15H48.22L52.2 29H49.98L49.06 25.7H43.58L42.66 29H40.42ZM44.12 23.7H48.52L46.48 16.34H46.16L44.12 23.7ZM58.1967 29.28C56.9434 29.28 55.9034 29 55.0767 28.44C54.2501 27.88 53.7434 27.0333 53.5567 25.9L55.4767 25.44C55.5834 25.9867 55.7634 26.42 56.0167 26.74C56.2701 27.06 56.5834 27.2867 56.9567 27.42C57.3434 27.5533 57.7567 27.62 58.1967 27.62C58.8501 27.62 59.3501 27.4933 59.6967 27.24C60.0567 26.9867 60.2367 26.66 60.2367 26.26C60.2367 25.86 60.0701 25.5667 59.7367 25.38C59.4034 25.1933 58.9101 25.04 58.2567 24.92L57.5767 24.8C56.9101 24.68 56.3034 24.5067 55.7567 24.28C55.2101 24.0533 54.7767 23.74 54.4567 23.34C54.1367 22.94 53.9767 22.4267 53.9767 21.8C53.9767 20.8667 54.3234 20.1467 55.0167 19.64C55.7101 19.12 56.6301 18.86 57.7767 18.86C58.8834 18.86 59.7901 19.1133 60.4967 19.62C61.2167 20.1133 61.6834 20.7867 61.8967 21.64L59.9767 22.18C59.8567 21.58 59.6034 21.16 59.2167 20.92C58.8301 20.6667 58.3501 20.54 57.7767 20.54C57.2167 20.54 56.7767 20.6467 56.4567 20.86C56.1367 21.06 55.9767 21.3467 55.9767 21.72C55.9767 22.12 56.1301 22.4133 56.4367 22.6C56.7567 22.7867 57.1834 22.9267 57.7167 23.02L58.4167 23.14C59.1234 23.26 59.7701 23.4267 60.3567 23.64C60.9434 23.8533 61.4034 24.16 61.7367 24.56C62.0834 24.96 62.2567 25.4933 62.2567 26.16C62.2567 27.1467 61.8901 27.9133 61.1567 28.46C60.4234 29.0067 59.4367 29.28 58.1967 29.28ZM68.1497 29C67.5497 29 67.0697 28.82 66.7097 28.46C66.363 28.1 66.1897 27.62 66.1897 27.02V20.88H63.4697V19.14H66.1897V15.88H68.2497V19.14H71.1897V20.88H68.2497V26.66C68.2497 27.06 68.4364 27.26 68.8097 27.26H70.8697V29H68.1497ZM73.6098 29V19.14H75.6298V20.3H75.9498C76.1098 19.8867 76.3632 19.5867 76.7098 19.4C77.0698 19.2 77.5098 19.1 78.0298 19.1H79.2098V20.96H77.9498C77.2832 20.96 76.7365 21.1467 76.3098 21.52C75.8832 21.88 75.6698 22.44 75.6698 23.2V29H73.6098ZM85.6127 29.28C84.626 29.28 83.746 29.08 82.9727 28.68C82.2127 28.2667 81.6127 27.68 81.1727 26.92C80.7327 26.16 80.5127 25.26 80.5127 24.22V23.92C80.5127 22.88 80.7327 21.9867 81.1727 21.24C81.6127 20.48 82.2127 19.8933 82.9727 19.48C83.746 19.0667 84.626 18.86 85.6127 18.86C86.5993 18.86 87.4793 19.0667 88.2527 19.48C89.026 19.8933 89.6327 20.48 90.0727 21.24C90.5127 21.9867 90.7327 22.88 90.7327 23.92V24.22C90.7327 25.26 90.5127 26.16 90.0727 26.92C89.6327 27.68 89.026 28.2667 88.2527 28.68C87.4793 29.08 86.5993 29.28 85.6127 29.28ZM85.6127 27.44C86.5193 27.44 87.2527 27.1533 87.8127 26.58C88.386 25.9933 88.6727 25.1867 88.6727 24.16V23.98C88.6727 22.9533 88.3927 22.1533 87.8327 21.58C87.2727 20.9933 86.5327 20.7 85.6127 20.7C84.7193 20.7 83.986 20.9933 83.4127 21.58C82.8527 22.1533 82.5727 22.9533 82.5727 23.98V24.16C82.5727 25.1867 82.8527 25.9933 83.4127 26.58C83.986 27.1533 84.7193 27.44 85.6127 27.44Z" fill="#D9D9D9"/>
<path d="M16.2074 31.0021C14.9724 29.8875 14.6121 27.5479 15.1265 25.8521C16.0179 26.9208 17.254 27.2604 18.5338 27.451C20.5092 27.7458 22.4492 27.6354 24.2841 26.7448C24.4944 26.6427 24.6881 26.5062 24.9172 26.3698C25.0901 26.8625 25.1349 27.3594 25.0745 27.8667C24.9287 29.101 24.3059 30.0542 23.3167 30.7771C22.921 31.0656 22.5023 31.324 22.0931 31.5969C20.8383 32.4344 20.4988 33.4167 20.9705 34.8458L21.0163 35C20.4159 34.7423 19.9058 34.3114 19.5512 33.7625C19.1822 33.201 18.9853 32.5438 18.9847 31.8719C18.9805 31.5385 18.9805 31.2031 18.9347 30.874C18.8243 30.0729 18.4432 29.7146 17.7257 29.6937C16.9895 29.6729 16.4063 30.1219 16.2522 30.8292C16.2397 30.8844 16.2231 30.9375 16.2054 31.001H16.2074V31.0021ZM10 26.3719C10 26.3719 13.3739 24.7312 16.7583 24.7312L19.3106 16.851C19.4064 16.4698 19.6855 16.2115 20 16.2115C20.3145 16.2115 20.5936 16.4698 20.6894 16.851L23.2407 24.7312C27.2498 24.7312 30 26.3719 30 26.3719L24.257 10.7573C24.0925 10.2969 23.8144 10 23.4395 10H16.5604C16.1856 10 15.92 10.2969 15.744 10.7573L10 26.3719Z" fill="#D9D9D9"/>
</svg>
