<svg width="113" height="80" viewBox="0 0 113 80" fill="none" xmlns="http://www.w3.org/2000/svg">
<path d="M34.752 24V7.2H41.424C42.448 7.2 43.36 7.408 44.16 7.824C44.976 8.224 45.608 8.8 46.056 9.552C46.52 10.288 46.752 11.176 46.752 12.216V12.528C46.752 13.568 46.512 14.464 46.032 15.216C45.568 15.968 44.936 16.544 44.136 16.944C43.336 17.344 42.432 17.544 41.424 17.544H37.344V24H34.752ZM37.344 15.192H41.16C42.072 15.192 42.8 14.952 43.344 14.472C43.888 13.992 44.16 13.336 44.16 12.504V12.264C44.16 11.416 43.888 10.752 43.344 10.272C42.8 9.792 42.072 9.552 41.16 9.552H37.344V15.192ZM54.5008 24.336C53.3168 24.336 52.2608 24.096 51.3328 23.616C50.4208 23.12 49.7008 22.416 49.1728 21.504C48.6448 20.592 48.3808 19.512 48.3808 18.264V17.904C48.3808 16.656 48.6448 15.584 49.1728 14.688C49.7008 13.776 50.4208 13.072 51.3328 12.576C52.2608 12.08 53.3168 11.832 54.5008 11.832C55.6848 11.832 56.7408 12.08 57.6688 12.576C58.5968 13.072 59.3248 13.776 59.8528 14.688C60.3808 15.584 60.6448 16.656 60.6448 17.904V18.264C60.6448 19.512 60.3808 20.592 59.8528 21.504C59.3248 22.416 58.5968 23.12 57.6688 23.616C56.7408 24.096 55.6848 24.336 54.5008 24.336ZM54.5008 22.128C55.5888 22.128 56.4688 21.784 57.1408 21.096C57.8288 20.392 58.1728 19.424 58.1728 18.192V17.976C58.1728 16.744 57.8368 15.784 57.1648 15.096C56.4928 14.392 55.6048 14.04 54.5008 14.04C53.4288 14.04 52.5488 14.392 51.8608 15.096C51.1888 15.784 50.8528 16.744 50.8528 17.976V18.192C50.8528 19.424 51.1888 20.392 51.8608 21.096C52.5488 21.784 53.4288 22.128 54.5008 22.128ZM63.7224 24V7.2H66.1944V24H63.7224ZM73.5351 24.336C72.6871 24.336 71.9271 24.192 71.2551 23.904C70.5991 23.616 70.0711 23.192 69.6711 22.632C69.2871 22.072 69.0951 21.392 69.0951 20.592C69.0951 19.776 69.2871 19.104 69.6711 18.576C70.0711 18.032 70.6071 17.624 71.2791 17.352C71.9671 17.08 72.7431 16.944 73.6071 16.944H77.2071V16.176C77.2071 15.488 76.9991 14.936 76.5831 14.52C76.1671 14.104 75.5271 13.896 74.6631 13.896C73.8151 13.896 73.1671 14.096 72.7191 14.496C72.2711 14.896 71.9751 15.416 71.8311 16.056L69.5271 15.312C69.7191 14.672 70.0231 14.096 70.4391 13.584C70.8711 13.056 71.4391 12.632 72.1431 12.312C72.8471 11.992 73.6951 11.832 74.6871 11.832C76.2231 11.832 77.4311 12.224 78.3111 13.008C79.1911 13.792 79.6311 14.904 79.6311 16.344V21.216C79.6311 21.696 79.8551 21.936 80.3031 21.936H81.3111V24H79.4631C78.9031 24 78.4471 23.856 78.0951 23.568C77.7431 23.28 77.5671 22.888 77.5671 22.392V22.32H77.2071C77.0791 22.56 76.8871 22.84 76.6311 23.16C76.3751 23.48 75.9991 23.76 75.5031 24C75.0071 24.224 74.3511 24.336 73.5351 24.336ZM73.8951 22.296C74.8871 22.296 75.6871 22.016 76.2951 21.456C76.9031 20.88 77.2071 20.096 77.2071 19.104V18.864H73.7511C73.0951 18.864 72.5671 19.008 72.1671 19.296C71.7671 19.568 71.5671 19.976 71.5671 20.52C71.5671 21.064 71.7751 21.496 72.1911 21.816C72.6071 22.136 73.1751 22.296 73.8951 22.296ZM83.7146 24V12.168H86.1386V13.944H86.5226C86.7466 13.464 87.1466 13.016 87.7226 12.6C88.2986 12.184 89.1546 11.976 90.2906 11.976C91.1866 11.976 91.9786 12.176 92.6666 12.576C93.3706 12.976 93.9226 13.544 94.3226 14.28C94.7226 15 94.9226 15.872 94.9226 16.896V24H92.4506V17.088C92.4506 16.064 92.1946 15.312 91.6826 14.832C91.1706 14.336 90.4666 14.088 89.5706 14.088C88.5466 14.088 87.7226 14.424 87.0986 15.096C86.4906 15.768 86.1866 16.744 86.1866 18.024V24H83.7146ZM103.376 24.336C102.4 24.336 101.496 24.096 100.664 23.616C99.8323 23.136 99.1603 22.448 98.6483 21.552C98.1523 20.64 97.9043 19.544 97.9043 18.264V17.904C97.9043 16.64 98.1523 15.552 98.6483 14.64C99.1443 13.728 99.8083 13.032 100.64 12.552C101.472 12.072 102.384 11.832 103.376 11.832C104.144 11.832 104.784 11.928 105.296 12.12C105.824 12.312 106.256 12.56 106.592 12.864C106.928 13.152 107.184 13.456 107.36 13.776H107.744V7.2H110.216V24H107.792V22.32H107.408C107.104 22.832 106.64 23.296 106.016 23.712C105.408 24.128 104.528 24.336 103.376 24.336ZM104.072 22.176C105.144 22.176 106.024 21.832 106.712 21.144C107.416 20.456 107.768 19.472 107.768 18.192V17.976C107.768 16.712 107.424 15.736 106.736 15.048C106.048 14.36 105.16 14.016 104.072 14.016C103.016 14.016 102.136 14.36 101.432 15.048C100.744 15.736 100.4 16.712 100.4 17.976V18.192C100.4 19.472 100.744 20.456 101.432 21.144C102.136 21.832 103.016 22.176 104.072 22.176Z" fill="#D9D9D9"/>
<path d="M8.26248 5H8.61338C9.056 5 9.44569 5.29167 9.57047 5.71634C9.66396 6.03455 9.90948 6.28548 10.2256 6.38588L10.3966 6.44019C10.6837 6.53139 10.9933 6.52277 11.2749 6.41574L11.4599 6.34544C11.7362 6.24044 12.0331 6.20124 12.3272 6.23096L14.6642 6.46714C15.1532 6.51657 15.6463 6.5123 16.1345 6.45441L17.7619 6.26143C18.1758 6.21236 18.5942 6.30093 18.9527 6.51345L19.1421 6.62572C19.5545 6.87028 19.8221 7.30032 19.8594 7.7784C19.873 7.9537 19.9179 8.12515 19.992 8.28461L20.8065 10.038C20.9343 10.3131 21.007 10.6104 21.0206 10.9133L21.0478 11.5166C21.0678 11.961 20.8524 12.3831 20.481 12.6278L20.4054 12.6776C20.2965 12.7493 20.2053 12.8447 20.1384 12.9565L20.0994 13.0216C19.8862 13.3781 19.9873 13.839 20.3302 14.0735C20.5907 14.2518 20.7193 14.5686 20.6567 14.878L20.5736 15.2886C20.5382 15.4635 20.5361 15.6436 20.5675 15.8192L20.6209 16.1184C20.7121 16.629 20.9335 17.1074 21.2637 17.5073L21.6287 17.9495C21.8687 18.2402 22 18.6054 22 18.9824C22 19.4644 21.7858 19.9214 21.4153 20.2296L21.3647 20.2717C21.2817 20.3408 21.2053 20.4173 21.1363 20.5003L19.4632 22.5143C19.1964 22.8354 19.0944 23.2624 19.187 23.6695L19.3071 24.1966C19.3627 24.4407 19.2569 24.6931 19.0439 24.8247C18.8679 24.9333 18.6477 24.9411 18.4645 24.8451L17.5046 24.3418C17.0463 24.1015 16.5245 24.0101 16.0118 24.0805L15.6896 24.1247C15.4712 24.1547 15.2495 24.1505 15.0323 24.1121L14.8497 24.0799C14.4569 24.0106 14.0523 24.0875 13.7122 24.296L13.5543 24.3929C13.2529 24.5777 12.8863 24.6234 12.5488 24.518C12.3977 24.4709 12.2572 24.3949 12.135 24.2943L11.7324 23.9628C11.4959 23.768 11.1865 23.6857 10.8845 23.7371C10.4691 23.8079 10.0514 23.6247 9.82212 23.2712L9.58369 22.9037C9.33929 22.527 8.94746 22.2707 8.50435 22.1977L8.3369 22.1701C7.97168 22.11 7.6526 21.8894 7.46731 21.569C7.34517 21.3578 7.16329 21.1874 6.94455 21.0793L6.73241 20.9745C6.42826 20.8242 6.06669 20.8498 5.78669 21.0413C5.4397 21.2787 4.97719 21.2564 4.65467 20.9867L4.44946 20.8151C4.26708 20.6627 4.16641 20.4337 4.17734 20.1962C4.19113 19.8965 4.02755 19.6166 3.75963 19.4815L2.49199 18.8425C2.32631 18.7589 2.14334 18.7154 1.9578 18.7154H1.71208C1.53859 18.7154 1.37295 18.6431 1.25496 18.5159C1.09807 18.3468 1.04738 18.1049 1.12317 17.887L1.26106 17.4907C1.37568 17.1612 1.35538 16.7998 1.20459 16.4852L0.920512 15.8926C0.792903 15.6264 0.784512 15.3185 0.897433 15.0457C1.01333 14.7658 1.0013 14.4492 0.864513 14.1789L0.829801 14.1103C0.70716 13.8679 0.673342 13.5902 0.734229 13.3255C0.802051 13.0306 0.75213 12.7209 0.595087 12.4623L0.458663 12.2376C0.172203 11.7658 0.141095 11.1819 0.375807 10.6824C0.470938 10.4799 0.523826 10.2602 0.531244 10.0366L0.538167 9.82797C0.575286 8.70926 1.30853 7.73338 2.3727 7.38637L4.19993 6.79054C4.46219 6.70502 4.69789 6.55317 4.88417 6.34972L4.97172 6.2541C5.21912 5.98391 5.56862 5.83004 5.93497 5.83004C6.13562 5.83004 6.33358 5.7838 6.51348 5.69492L7.61295 5.15171C7.81493 5.05191 8.03719 5 8.26248 5Z" fill="#757575"/>
</svg>
