<svg width="128" height="53" viewBox="0 0 128 53" fill="none" xmlns="http://www.w3.org/2000/svg">
<rect x="0.5" y="0.5" width="117" height="43" rx="9.5" fill="#1A1A1A" stroke="#252525"/>
<path d="M40.94 29V27.08H42.82V16.92H40.94V15H46.54C48.4067 15 49.8333 15.4733 50.82 16.42C51.82 17.3667 52.32 18.7933 52.32 20.7V23.32C52.32 25.2267 51.82 26.6533 50.82 27.6C49.8333 28.5333 48.4067 29 46.54 29H40.94ZM45 27.04H46.56C47.7733 27.04 48.6733 26.7333 49.26 26.12C49.8467 25.5067 50.14 24.5933 50.14 23.38V20.62C50.14 19.3933 49.8467 18.48 49.26 17.88C48.6733 17.28 47.7733 16.98 46.56 16.98H45V27.04ZM59.4408 29.28C58.4541 29.28 57.5741 29.08 56.8008 28.68C56.0408 28.2667 55.4408 27.68 55.0008 26.92C54.5608 26.16 54.3408 25.26 54.3408 24.22V23.92C54.3408 22.88 54.5608 21.9867 55.0008 21.24C55.4408 20.48 56.0408 19.8933 56.8008 19.48C57.5741 19.0667 58.4541 18.86 59.4408 18.86C60.4274 18.86 61.3074 19.0667 62.0808 19.48C62.8541 19.8933 63.4608 20.48 63.9008 21.24C64.3408 21.9867 64.5608 22.88 64.5608 23.92V24.22C64.5608 25.26 64.3408 26.16 63.9008 26.92C63.4608 27.68 62.8541 28.2667 62.0808 28.68C61.3074 29.08 60.4274 29.28 59.4408 29.28ZM59.4408 27.44C60.3474 27.44 61.0808 27.1533 61.6408 26.58C62.2141 25.9933 62.5008 25.1867 62.5008 24.16V23.98C62.5008 22.9533 62.2208 22.1533 61.6608 21.58C61.1008 20.9933 60.3608 20.7 59.4408 20.7C58.5474 20.7 57.8141 20.9933 57.2408 21.58C56.6808 22.1533 56.4008 22.9533 56.4008 23.98V24.16C56.4008 25.1867 56.6808 25.9933 57.2408 26.58C57.8141 27.1533 58.5474 27.44 59.4408 27.44ZM71.7055 29.28C70.7588 29.28 69.8988 29.08 69.1255 28.68C68.3655 28.28 67.7588 27.7 67.3055 26.94C66.8655 26.18 66.6455 25.2667 66.6455 24.2V23.94C66.6455 22.8733 66.8655 21.9667 67.3055 21.22C67.7588 20.46 68.3655 19.88 69.1255 19.48C69.8988 19.0667 70.7588 18.86 71.7055 18.86C72.6521 18.86 73.4588 19.0333 74.1255 19.38C74.7921 19.7267 75.3255 20.1867 75.7255 20.76C76.1388 21.3333 76.4055 21.9667 76.5255 22.66L74.5255 23.08C74.4588 22.64 74.3188 22.24 74.1055 21.88C73.8921 21.52 73.5921 21.2333 73.2055 21.02C72.8188 20.8067 72.3321 20.7 71.7455 20.7C71.1721 20.7 70.6521 20.8333 70.1855 21.1C69.7321 21.3533 69.3721 21.7267 69.1055 22.22C68.8388 22.7 68.7055 23.2867 68.7055 23.98V24.16C68.7055 24.8533 68.8388 25.4467 69.1055 25.94C69.3721 26.4333 69.7321 26.8067 70.1855 27.06C70.6521 27.3133 71.1721 27.44 71.7455 27.44C72.6121 27.44 73.2721 27.22 73.7255 26.78C74.1788 26.3267 74.4655 25.7533 74.5855 25.06L76.5855 25.52C76.4255 26.2 76.1388 26.8267 75.7255 27.4C75.3255 27.9733 74.7921 28.4333 74.1255 28.78C73.4588 29.1133 72.6521 29.28 71.7055 29.28ZM78.9614 29V15H81.0214V22.98H81.3414L85.2214 19.14H87.9614L82.9814 23.92L88.1214 29H85.4014L81.3414 24.9H81.0214V29H78.9614ZM93.9306 29.28C92.9306 29.28 92.0573 29.0733 91.3106 28.66C90.564 28.2333 89.9773 27.64 89.5506 26.88C89.1373 26.1067 88.9306 25.2133 88.9306 24.2V23.96C88.9306 22.9333 89.1373 22.04 89.5506 21.28C89.964 20.5067 90.5373 19.9133 91.2706 19.5C92.0173 19.0733 92.8773 18.86 93.8506 18.86C94.7973 18.86 95.624 19.0733 96.3306 19.5C97.0506 19.9133 97.6106 20.4933 98.0106 21.24C98.4106 21.9867 98.6106 22.86 98.6106 23.86V24.64H91.0306C91.0573 25.5067 91.344 26.2 91.8906 26.72C92.4506 27.2267 93.144 27.48 93.9706 27.48C94.744 27.48 95.324 27.3067 95.7106 26.96C96.1106 26.6133 96.4173 26.2133 96.6306 25.76L98.3306 26.64C98.144 27.0133 97.8706 27.4067 97.5106 27.82C97.164 28.2333 96.704 28.58 96.1306 28.86C95.5573 29.14 94.824 29.28 93.9306 29.28ZM91.0506 23.06H96.5106C96.4573 22.3133 96.1906 21.7333 95.7106 21.32C95.2306 20.8933 94.604 20.68 93.8306 20.68C93.0573 20.68 92.424 20.8933 91.9306 21.32C91.4506 21.7333 91.1573 22.3133 91.0506 23.06ZM101.09 29V19.14H103.11V20.3H103.43C103.59 19.8867 103.844 19.5867 104.19 19.4C104.55 19.2 104.99 19.1 105.51 19.1H106.69V20.96H105.43C104.764 20.96 104.217 21.1467 103.79 21.52C103.364 21.88 103.15 22.44 103.15 23.2V29H101.09Z" fill="#D9D9D9"/>
<path d="M21.6525 21.2505H23.4183C23.4593 21.2505 23.4986 21.2346 23.5276 21.2065C23.5567 21.1783 23.5731 21.14 23.5733 21.1001V19.5661C23.5733 19.526 23.557 19.4876 23.5279 19.4592C23.4989 19.4308 23.4594 19.4149 23.4183 19.4149H21.6525C21.6116 19.4149 21.5724 19.4308 21.5435 19.459C21.5146 19.4872 21.4983 19.5254 21.4983 19.5653V21.1001C21.4983 21.183 21.5675 21.2505 21.6525 21.2505ZM19.1908 16.8364H20.9558C20.9969 16.8364 21.0364 16.8204 21.0654 16.7921C21.0945 16.7637 21.1108 16.7253 21.1108 16.6852V15.1504C21.1106 15.1104 21.0942 15.0722 21.0651 15.044C21.0361 15.0158 20.9968 15 20.9558 15H19.1908C19.15 15 19.1107 15.0158 19.0818 15.044C19.0529 15.0723 19.0367 15.1105 19.0367 15.1504V16.6852C19.0367 16.7681 19.105 16.8364 19.1908 16.8364ZM19.1908 19.0434H20.9558C20.9969 19.0432 21.0362 19.0272 21.0652 18.9989C21.0942 18.9706 21.1106 18.9322 21.1108 18.8922V17.3583C21.1106 17.3183 21.0942 17.28 21.0651 17.2519C21.0361 17.2237 20.9968 17.2079 20.9558 17.2079H19.1908C19.15 17.2079 19.1107 17.2237 19.0818 17.2519C19.0529 17.2801 19.0367 17.3184 19.0367 17.3583V18.8922C19.0367 18.9751 19.105 19.0426 19.1908 19.0434ZM16.7492 19.0434H18.5158C18.5567 19.043 18.5957 19.0269 18.6244 18.9986C18.6531 18.9702 18.6692 18.932 18.6692 18.8922V17.3583C18.6692 17.3184 18.6529 17.2801 18.624 17.2519C18.5951 17.2237 18.5559 17.2079 18.515 17.2079H16.75C16.7091 17.2079 16.6699 17.2237 16.641 17.2519C16.6121 17.2801 16.5958 17.3184 16.5958 17.3583V18.8922C16.5958 18.9751 16.665 19.0426 16.75 19.0434M14.28 19.0434H16.0458C16.0868 19.0432 16.126 19.0272 16.1549 18.9988C16.1838 18.9705 16.2 18.9322 16.2 18.8922V17.3583C16.2 17.3184 16.1838 17.2801 16.1549 17.2519C16.1259 17.2237 16.0867 17.2079 16.0458 17.2079H14.28C14.239 17.2079 14.1997 17.2237 14.1707 17.2519C14.1417 17.28 14.1252 17.3183 14.125 17.3583V18.8922C14.125 18.9751 14.195 19.0426 14.28 19.0434ZM19.1908 21.2505H20.9558C20.9968 21.2505 21.0361 21.2346 21.0651 21.2065C21.0942 21.1783 21.1106 21.14 21.1108 21.1001V19.5661C21.1108 19.526 21.0945 19.4876 21.0654 19.4592C21.0364 19.4308 20.9969 19.4149 20.9558 19.4149H19.1908C19.15 19.4149 19.1107 19.4308 19.0818 19.459C19.0529 19.4872 19.0367 19.5254 19.0367 19.5653V21.1001C19.0367 21.183 19.105 21.2505 19.1908 21.2505ZM16.7492 21.2505H18.5158C18.5566 21.2503 18.5956 21.2343 18.6243 21.2061C18.653 21.178 18.6692 21.1398 18.6692 21.1001V19.5661C18.6693 19.5464 18.6654 19.5268 18.6578 19.5085C18.6501 19.4902 18.6388 19.4736 18.6246 19.4595C18.6104 19.4455 18.5934 19.4343 18.5748 19.4267C18.5561 19.419 18.5361 19.415 18.5158 19.4149H16.7492C16.7084 19.4151 16.6694 19.4311 16.6407 19.4592C16.612 19.4874 16.5958 19.5256 16.5958 19.5653V21.1001C16.5958 21.183 16.665 21.2505 16.75 21.2505M14.28 21.2505H16.0458C16.0867 21.2505 16.1259 21.2346 16.1549 21.2064C16.1838 21.1782 16.2 21.14 16.2 21.1001V19.5661C16.2001 19.5464 16.1962 19.5268 16.1886 19.5085C16.1809 19.4902 16.1697 19.4736 16.1554 19.4595C16.1412 19.4455 16.1243 19.4343 16.1056 19.4267C16.0869 19.419 16.0669 19.415 16.0467 19.4149H14.28C14.2389 19.4149 14.1995 19.4308 14.1704 19.4592C14.1413 19.4876 14.125 19.526 14.125 19.5661V21.1001C14.125 21.183 14.195 21.2505 14.28 21.2505ZM11.8467 21.2505H13.6133C13.6541 21.2503 13.6931 21.2343 13.7218 21.2061C13.7506 21.178 13.7667 21.1398 13.7667 21.1001V19.5661C13.7668 19.5464 13.7629 19.5268 13.7553 19.5085C13.7476 19.4902 13.7364 19.4736 13.7221 19.4595C13.7079 19.4455 13.6909 19.4343 13.6723 19.4267C13.6536 19.419 13.6336 19.415 13.6133 19.4149H11.8467C11.8059 19.4151 11.7669 19.4311 11.7382 19.4592C11.7095 19.4874 11.6933 19.5256 11.6933 19.5653V21.1001C11.6933 21.183 11.7608 21.2505 11.8467 21.2505ZM29.8025 20.2847C29.7483 20.2433 29.2425 19.8701 28.1742 19.8701C27.8925 19.871 27.6108 19.8945 27.3325 19.9409C27.1258 18.5589 25.955 17.8842 25.9025 17.8549L25.6158 17.6932L25.4275 17.959C25.1908 18.315 25.0192 18.7085 24.9175 19.1215C24.7258 19.91 24.8425 20.6514 25.2533 21.2846C24.7575 21.5545 23.9617 21.6203 23.8 21.626H10.6258C10.4604 21.6262 10.3019 21.6903 10.1847 21.8043C10.0676 21.9182 10.0015 22.0727 10.0008 22.2341C9.98542 23.3598 10.1808 24.4789 10.5775 25.5361C11.0317 26.697 11.7067 27.5521 12.5858 28.0757C13.5692 28.6634 15.1692 28.9999 16.9817 28.9999C17.8008 29.0024 18.6175 28.93 19.4233 28.7837C20.5424 28.5832 21.6192 28.2015 22.6092 27.6546C23.4258 27.1937 24.1592 26.6075 24.7842 25.9182C25.8275 24.7655 26.4492 23.4819 26.9117 22.3414H27.0958C28.2392 22.3414 28.9417 21.8951 29.3292 21.5212C29.5867 21.283 29.7875 20.9928 29.9183 20.6709L30 20.4367L29.8025 20.2847Z" fill="#D9D9D9"/>
</svg>
