<svg width="264" height="44" viewBox="0 0 264 44" fill="none" xmlns="http://www.w3.org/2000/svg">
<rect x="0.5" y="0.5" width="258" height="43" rx="9.5" fill="#1A1A1A" stroke="#252525"/>
<path d="M49.1 29.28C48.1533 29.28 47.2933 29.08 46.52 28.68C45.76 28.28 45.1533 27.7 44.7 26.94C44.26 26.18 44.04 25.2667 44.04 24.2V23.94C44.04 22.8733 44.26 21.9667 44.7 21.22C45.1533 20.46 45.76 19.88 46.52 19.48C47.2933 19.0667 48.1533 18.86 49.1 18.86C50.0467 18.86 50.8533 19.0333 51.52 19.38C52.1867 19.7267 52.72 20.1867 53.12 20.76C53.5333 21.3333 53.8 21.9667 53.92 22.66L51.92 23.08C51.8533 22.64 51.7133 22.24 51.5 21.88C51.2867 21.52 50.9867 21.2333 50.6 21.02C50.2133 20.8067 49.7267 20.7 49.14 20.7C48.5667 20.7 48.0467 20.8333 47.58 21.1C47.1267 21.3533 46.7667 21.7267 46.5 22.22C46.2333 22.7 46.1 23.2867 46.1 23.98V24.16C46.1 24.8533 46.2333 25.4467 46.5 25.94C46.7667 26.4333 47.1267 26.8067 47.58 27.06C48.0467 27.3133 48.5667 27.44 49.14 27.44C50.0067 27.44 50.6667 27.22 51.12 26.78C51.5733 26.3267 51.86 25.7533 51.98 25.06L53.98 25.52C53.82 26.2 53.5333 26.8267 53.12 27.4C52.72 27.9733 52.1867 28.4333 51.52 28.78C50.8533 29.1133 50.0467 29.28 49.1 29.28ZM60.9759 29.28C59.9893 29.28 59.1093 29.08 58.3359 28.68C57.5759 28.2667 56.9759 27.68 56.5359 26.92C56.0959 26.16 55.8759 25.26 55.8759 24.22V23.92C55.8759 22.88 56.0959 21.9867 56.5359 21.24C56.9759 20.48 57.5759 19.8933 58.3359 19.48C59.1093 19.0667 59.9893 18.86 60.9759 18.86C61.9626 18.86 62.8426 19.0667 63.6159 19.48C64.3893 19.8933 64.9959 20.48 65.4359 21.24C65.8759 21.9867 66.0959 22.88 66.0959 23.92V24.22C66.0959 25.26 65.8759 26.16 65.4359 26.92C64.9959 27.68 64.3893 28.2667 63.6159 28.68C62.8426 29.08 61.9626 29.28 60.9759 29.28ZM60.9759 27.44C61.8826 27.44 62.6159 27.1533 63.1759 26.58C63.7493 25.9933 64.0359 25.1867 64.0359 24.16V23.98C64.0359 22.9533 63.7559 22.1533 63.1959 21.58C62.6359 20.9933 61.8959 20.7 60.9759 20.7C60.0826 20.7 59.3493 20.9933 58.7759 21.58C58.2159 22.1533 57.9359 22.9533 57.9359 23.98V24.16C57.9359 25.1867 58.2159 25.9933 58.7759 26.58C59.3493 27.1533 60.0826 27.44 60.9759 27.44ZM68.6606 29V19.14H70.6806V20.62H71.0006C71.1873 20.22 71.5206 19.8467 72.0006 19.5C72.4806 19.1533 73.194 18.98 74.1406 18.98C74.8873 18.98 75.5473 19.1467 76.1206 19.48C76.7073 19.8133 77.1673 20.2867 77.5006 20.9C77.834 21.5 78.0006 22.2267 78.0006 23.08V29H75.9406V23.24C75.9406 22.3867 75.7273 21.76 75.3006 21.36C74.874 20.9467 74.2873 20.74 73.5406 20.74C72.6873 20.74 72.0006 21.02 71.4806 21.58C70.974 22.14 70.7206 22.9533 70.7206 24.02V29H68.6606ZM84.3919 29C83.7919 29 83.3119 28.82 82.9519 28.46C82.6052 28.1 82.4319 27.62 82.4319 27.02V20.88H79.7119V19.14H82.4319V15.88H84.4919V19.14H87.4319V20.88H84.4919V26.66C84.4919 27.06 84.6785 27.26 85.0519 27.26H87.1119V29H84.3919ZM92.8925 29.28C92.1858 29.28 91.5525 29.16 90.9925 28.92C90.4458 28.68 90.0058 28.3267 89.6725 27.86C89.3525 27.3933 89.1925 26.8267 89.1925 26.16C89.1925 25.48 89.3525 24.92 89.6725 24.48C90.0058 24.0267 90.4525 23.6867 91.0125 23.46C91.5858 23.2333 92.2325 23.12 92.9525 23.12H95.9525V22.48C95.9525 21.9067 95.7792 21.4467 95.4325 21.1C95.0858 20.7533 94.5525 20.58 93.8325 20.58C93.1258 20.58 92.5858 20.7467 92.2125 21.08C91.8392 21.4133 91.5925 21.8467 91.4725 22.38L89.5525 21.76C89.7125 21.2267 89.9658 20.7467 90.3125 20.32C90.6725 19.88 91.1458 19.5267 91.7325 19.26C92.3192 18.9933 93.0258 18.86 93.8525 18.86C95.1325 18.86 96.1392 19.1867 96.8725 19.84C97.6058 20.4933 97.9725 21.42 97.9725 22.62V26.68C97.9725 27.08 98.1592 27.28 98.5325 27.28H99.3725V29H97.8325C97.3658 29 96.9858 28.88 96.6925 28.64C96.3992 28.4 96.2525 28.0733 96.2525 27.66V27.6H95.9525C95.8458 27.8 95.6858 28.0333 95.4725 28.3C95.2592 28.5667 94.9458 28.8 94.5325 29C94.1192 29.1867 93.5725 29.28 92.8925 29.28ZM93.1925 27.58C94.0192 27.58 94.6858 27.3467 95.1925 26.88C95.6992 26.4 95.9525 25.7467 95.9525 24.92V24.72H93.0725C92.5258 24.72 92.0858 24.84 91.7525 25.08C91.4192 25.3067 91.2525 25.6467 91.2525 26.1C91.2525 26.5533 91.4258 26.9133 91.7725 27.18C92.1192 27.4467 92.5925 27.58 93.1925 27.58ZM105.721 29.28C104.774 29.28 103.914 29.08 103.141 28.68C102.381 28.28 101.774 27.7 101.321 26.94C100.881 26.18 100.661 25.2667 100.661 24.2V23.94C100.661 22.8733 100.881 21.9667 101.321 21.22C101.774 20.46 102.381 19.88 103.141 19.48C103.914 19.0667 104.774 18.86 105.721 18.86C106.668 18.86 107.474 19.0333 108.141 19.38C108.808 19.7267 109.341 20.1867 109.741 20.76C110.154 21.3333 110.421 21.9667 110.541 22.66L108.541 23.08C108.474 22.64 108.334 22.24 108.121 21.88C107.908 21.52 107.608 21.2333 107.221 21.02C106.834 20.8067 106.348 20.7 105.761 20.7C105.188 20.7 104.668 20.8333 104.201 21.1C103.748 21.3533 103.388 21.7267 103.121 22.22C102.854 22.7 102.721 23.2867 102.721 23.98V24.16C102.721 24.8533 102.854 25.4467 103.121 25.94C103.388 26.4333 103.748 26.8067 104.201 27.06C104.668 27.3133 105.188 27.44 105.761 27.44C106.628 27.44 107.288 27.22 107.741 26.78C108.194 26.3267 108.481 25.7533 108.601 25.06L110.601 25.52C110.441 26.2 110.154 26.8267 109.741 27.4C109.341 27.9733 108.808 28.4333 108.141 28.78C107.474 29.1133 106.668 29.28 105.721 29.28ZM116.306 29C115.706 29 115.226 28.82 114.866 28.46C114.519 28.1 114.346 27.62 114.346 27.02V20.88H111.626V19.14H114.346V15.88H116.406V19.14H119.346V20.88H116.406V26.66C116.406 27.06 116.593 27.26 116.966 27.26H119.026V29H116.306ZM130.806 33C128.953 33 127.339 32.64 125.966 31.92C124.606 31.2133 123.553 30.2 122.806 28.88C122.059 27.56 121.686 25.9733 121.686 24.12V23.66C121.686 21.82 122.046 20.24 122.766 18.92C123.486 17.6 124.506 16.5867 125.826 15.88C127.159 15.1733 128.719 14.82 130.506 14.82H130.926C132.606 14.82 134.073 15.1667 135.326 15.86C136.579 16.54 137.553 17.5067 138.246 18.76C138.939 20 139.286 21.4667 139.286 23.16V24.26C139.286 25.8067 138.986 26.9867 138.386 27.8C137.799 28.6 136.939 29 135.806 29H134.886C134.299 29 133.853 28.88 133.546 28.64C133.239 28.3867 133.086 28.0467 133.086 27.62V27.5H132.766C132.659 27.78 132.493 28.0533 132.266 28.32C132.053 28.5733 131.766 28.78 131.406 28.94C131.059 29.1 130.606 29.18 130.046 29.18C129.233 29.18 128.513 28.96 127.886 28.52C127.273 28.08 126.793 27.4933 126.446 26.76C126.113 26.0133 125.946 25.1733 125.946 24.24V23.9C125.946 22.9667 126.113 22.1333 126.446 21.4C126.779 20.6533 127.239 20.0667 127.826 19.64C128.426 19.2 129.119 18.98 129.906 18.98C130.453 18.98 130.899 19.0533 131.246 19.2C131.606 19.3333 131.893 19.5133 132.106 19.74C132.319 19.9667 132.493 20.2067 132.626 20.46H132.946V19.16H134.946V26.58C134.946 26.78 134.986 26.9333 135.066 27.04C135.159 27.1333 135.306 27.18 135.506 27.18H135.666C136.239 27.18 136.646 26.9467 136.886 26.48C137.139 26 137.266 25.2467 137.266 24.22V23.2C137.266 21.84 137.019 20.6733 136.526 19.7C136.033 18.7267 135.313 17.98 134.366 17.46C133.433 16.94 132.273 16.68 130.886 16.68H130.566C129.179 16.68 127.966 16.9467 126.926 17.48C125.899 18.0133 125.106 18.8067 124.546 19.86C123.986 20.9 123.706 22.1933 123.706 23.74V24.06C123.706 25.5933 123.999 26.8867 124.586 27.94C125.173 28.9933 126.006 29.7867 127.086 30.32C128.166 30.8667 129.446 31.14 130.926 31.14H134.966V33H130.806ZM130.446 27.38C131.193 27.38 131.793 27.1 132.246 26.54C132.713 25.9667 132.946 25.18 132.946 24.18V23.96C132.946 22.96 132.713 22.18 132.246 21.62C131.793 21.0467 131.193 20.76 130.446 20.76C129.699 20.76 129.099 21.0467 128.646 21.62C128.206 22.1933 127.986 22.9733 127.986 23.96V24.2C127.986 25.1867 128.206 25.9667 128.646 26.54C129.099 27.1 129.699 27.38 130.446 27.38ZM145.857 29C145.257 29 144.777 28.82 144.417 28.46C144.07 28.1 143.897 27.62 143.897 27.02V20.88H141.177V19.14H143.897V15.88H145.957V19.14H148.897V20.88H145.957V26.66C145.957 27.06 146.143 27.26 146.517 27.26H148.577V29H145.857ZM151.317 29V19.14H153.337V20.3H153.657C153.817 19.8867 154.07 19.5867 154.417 19.4C154.777 19.2 155.217 19.1 155.737 19.1H156.917V20.96H155.657C154.99 20.96 154.444 21.1467 154.017 21.52C153.59 21.88 153.377 22.44 153.377 23.2V29H151.317ZM158.651 29V26.48L164.471 21.16V20.88H158.851V19.14H166.711V21.68L160.871 27V27.26H166.871V29H158.651ZM170.562 33V31.2H176.062C176.436 31.2 176.622 31 176.622 30.6V27.56H176.302C176.182 27.8267 175.996 28.0867 175.742 28.34C175.502 28.58 175.176 28.78 174.762 28.94C174.349 29.1 173.829 29.18 173.202 29.18C172.456 29.18 171.789 29.0133 171.202 28.68C170.616 28.3467 170.156 27.8733 169.822 27.26C169.489 26.6467 169.322 25.92 169.322 25.08V19.14H171.382V24.92C171.382 25.7733 171.596 26.4067 172.022 26.82C172.449 27.22 173.042 27.42 173.802 27.42C174.642 27.42 175.316 27.14 175.822 26.58C176.342 26.02 176.602 25.2067 176.602 24.14V19.14H178.662V31.02C178.662 31.62 178.482 32.1 178.122 32.46C177.776 32.82 177.296 33 176.682 33H170.562ZM181.708 29V19.14H183.728V20.62H184.048C184.234 20.22 184.568 19.8467 185.048 19.5C185.528 19.1533 186.241 18.98 187.188 18.98C187.934 18.98 188.594 19.1467 189.168 19.48C189.754 19.8133 190.214 20.2867 190.548 20.9C190.881 21.5 191.048 22.2267 191.048 23.08V29H188.988V23.24C188.988 22.3867 188.774 21.76 188.348 21.36C187.921 20.9467 187.334 20.74 186.588 20.74C185.734 20.74 185.048 21.02 184.528 21.58C184.021 22.14 183.768 22.9533 183.768 24.02V29H181.708ZM197.636 29.18C196.889 29.18 196.223 29.0133 195.636 28.68C195.049 28.3467 194.589 27.8733 194.256 27.26C193.923 26.6467 193.756 25.9133 193.756 25.06V19.14H195.816V24.92C195.816 25.7733 196.029 26.4067 196.456 26.82C196.883 27.22 197.476 27.42 198.236 27.42C199.076 27.42 199.749 27.14 200.256 26.58C200.776 26.0067 201.036 25.1867 201.036 24.12V19.14H203.096V29H201.076V27.52H200.756C200.569 27.92 200.236 28.3 199.756 28.66C199.276 29.0067 198.569 29.18 197.636 29.18ZM207.381 29.28C206.914 29.28 206.521 29.1267 206.201 28.82C205.894 28.5133 205.741 28.12 205.741 27.64C205.741 27.16 205.894 26.7733 206.201 26.48C206.521 26.1733 206.914 26.02 207.381 26.02C207.848 26.02 208.234 26.1733 208.541 26.48C208.861 26.7867 209.021 27.1733 209.021 27.64C209.021 28.12 208.861 28.5133 208.541 28.82C208.234 29.1267 207.848 29.28 207.381 29.28ZM215.612 29.28C214.798 29.28 214.045 29.08 213.352 28.68C212.658 28.28 212.098 27.7067 211.672 26.96C211.258 26.2 211.052 25.2867 211.052 24.22V23.92C211.052 22.8667 211.258 21.96 211.672 21.2C212.085 20.44 212.638 19.86 213.332 19.46C214.025 19.06 214.785 18.86 215.612 18.86C216.252 18.86 216.785 18.94 217.212 19.1C217.652 19.26 218.012 19.4667 218.292 19.72C218.572 19.96 218.785 20.2133 218.932 20.48H219.252V15H221.312V29H219.292V27.6H218.972C218.718 28.0267 218.332 28.4133 217.812 28.76C217.305 29.1067 216.572 29.28 215.612 29.28ZM216.192 27.48C217.085 27.48 217.818 27.1933 218.392 26.62C218.978 26.0467 219.272 25.2267 219.272 24.16V23.98C219.272 22.9267 218.985 22.1133 218.412 21.54C217.838 20.9667 217.098 20.68 216.192 20.68C215.312 20.68 214.578 20.9667 213.992 21.54C213.418 22.1133 213.132 22.9267 213.132 23.98V24.16C213.132 25.2267 213.418 26.0467 213.992 26.62C214.578 27.1933 215.312 27.48 216.192 27.48ZM228.864 29.28C227.864 29.28 226.991 29.0733 226.244 28.66C225.498 28.2333 224.911 27.64 224.484 26.88C224.071 26.1067 223.864 25.2133 223.864 24.2V23.96C223.864 22.9333 224.071 22.04 224.484 21.28C224.898 20.5067 225.471 19.9133 226.204 19.5C226.951 19.0733 227.811 18.86 228.784 18.86C229.731 18.86 230.558 19.0733 231.264 19.5C231.984 19.9133 232.544 20.4933 232.944 21.24C233.344 21.9867 233.544 22.86 233.544 23.86V24.64H225.964C225.991 25.5067 226.278 26.2 226.824 26.72C227.384 27.2267 228.078 27.48 228.904 27.48C229.678 27.48 230.258 27.3067 230.644 26.96C231.044 26.6133 231.351 26.2133 231.564 25.76L233.264 26.64C233.078 27.0133 232.804 27.4067 232.444 27.82C232.098 28.2333 231.638 28.58 231.064 28.86C230.491 29.14 229.758 29.28 228.864 29.28ZM225.984 23.06H231.444C231.391 22.3133 231.124 21.7333 230.644 21.32C230.164 20.8933 229.538 20.68 228.764 20.68C227.991 20.68 227.358 20.8933 226.864 21.32C226.384 21.7333 226.091 22.3133 225.984 23.06ZM237.952 29L234.632 19.14H236.812L239.432 27.48H239.752L242.372 19.14H244.552L241.232 29H237.952Z" fill="#D9D9D9"/>
<path d="M32 17L23.03 22.7C22.7213 22.8934 22.3643 22.996 22 22.996C21.6357 22.996 21.2787 22.8934 20.97 22.7L12 17M14 14H30C31.1046 14 32 14.8954 32 16V28C32 29.1046 31.1046 30 30 30H14C12.8954 30 12 29.1046 12 28V16C12 14.8954 12.8954 14 14 14Z" stroke="#D9D9D9" stroke-width="2" stroke-linecap="round" stroke-linejoin="round"/>
</svg>
