<svg width="112" height="53" viewBox="0 0 112 53" fill="none" xmlns="http://www.w3.org/2000/svg">
<rect x="0.5" y="0.5" width="101" height="43" rx="9.5" fill="#1A1A1A" stroke="#252525"/>
<path d="M35.46 29V15H44.1V16.96H37.62V21H43.58V22.96H37.62V29H35.46ZM46.2622 29V19.14H48.3222V29H46.2622ZM47.3022 17.8C46.9022 17.8 46.5622 17.6733 46.2822 17.42C46.0155 17.1533 45.8822 16.8133 45.8822 16.4C45.8822 15.9867 46.0155 15.6533 46.2822 15.4C46.5622 15.1333 46.9022 15 47.3022 15C47.7155 15 48.0555 15.1333 48.3222 15.4C48.5889 15.6533 48.7222 15.9867 48.7222 16.4C48.7222 16.8133 48.5889 17.1533 48.3222 17.42C48.0555 17.6733 47.7155 17.8 47.3022 17.8ZM50.8994 24.12V23.82C50.8994 22.78 51.106 21.8933 51.5194 21.16C51.946 20.4267 52.506 19.86 53.1994 19.46C53.8927 19.06 54.6527 18.86 55.4794 18.86C56.4394 18.86 57.1727 19.04 57.6794 19.4C58.1994 19.76 58.5794 20.1467 58.8194 20.56H59.1394V19.14H61.1394V31.02C61.1394 31.62 60.9594 32.1 60.5994 32.46C60.2527 32.82 59.7727 33 59.1594 33H52.5194V31.2H58.5194C58.906 31.2 59.0994 31 59.0994 30.6V27.46H58.7794C58.6327 27.7 58.426 27.9467 58.1594 28.2C57.8927 28.4533 57.5394 28.66 57.0994 28.82C56.6727 28.98 56.1327 29.06 55.4794 29.06C54.6527 29.06 53.886 28.8667 53.1794 28.48C52.486 28.08 51.9327 27.5133 51.5194 26.78C51.106 26.0333 50.8994 25.1467 50.8994 24.12ZM56.0394 27.26C56.9327 27.26 57.666 26.98 58.2394 26.42C58.826 25.8467 59.1194 25.06 59.1194 24.06V23.88C59.1194 22.8533 58.8327 22.0667 58.2594 21.52C57.686 20.96 56.946 20.68 56.0394 20.68C55.1594 20.68 54.426 20.96 53.8394 21.52C53.266 22.0667 52.9794 22.8533 52.9794 23.88V24.06C52.9794 25.06 53.266 25.8467 53.8394 26.42C54.426 26.98 55.1594 27.26 56.0394 27.26ZM64.1723 29V19.14H66.1923V20.3H66.5123C66.699 19.9533 66.999 19.6467 67.4123 19.38C67.8257 19.1133 68.3857 18.98 69.0923 18.98C69.8257 18.98 70.4123 19.1333 70.8523 19.44C71.3057 19.7333 71.6457 20.1133 71.8723 20.58H72.1923C72.419 20.1267 72.7457 19.7467 73.1723 19.44C73.6123 19.1333 74.2323 18.98 75.0323 18.98C75.6723 18.98 76.239 19.1133 76.7323 19.38C77.2257 19.6333 77.619 20.02 77.9123 20.54C78.2057 21.0467 78.3523 21.68 78.3523 22.44V29H76.2923V22.6C76.2923 22 76.1257 21.54 75.7923 21.22C75.4723 20.8867 75.0123 20.72 74.4123 20.72C73.7723 20.72 73.259 20.9267 72.8723 21.34C72.4857 21.7533 72.2923 22.3467 72.2923 23.12V29H70.2323V22.6C70.2323 22 70.0657 21.54 69.7323 21.22C69.4123 20.8867 68.9523 20.72 68.3523 20.72C67.7123 20.72 67.199 20.9267 66.8123 21.34C66.4257 21.7533 66.2323 22.3467 66.2323 23.12V29H64.1723ZM84.3808 29.28C83.6741 29.28 83.0408 29.16 82.4808 28.92C81.9341 28.68 81.4941 28.3267 81.1608 27.86C80.8408 27.3933 80.6808 26.8267 80.6808 26.16C80.6808 25.48 80.8408 24.92 81.1608 24.48C81.4941 24.0267 81.9408 23.6867 82.5008 23.46C83.0741 23.2333 83.7208 23.12 84.4408 23.12H87.4408V22.48C87.4408 21.9067 87.2674 21.4467 86.9208 21.1C86.5741 20.7533 86.0408 20.58 85.3208 20.58C84.6141 20.58 84.0741 20.7467 83.7008 21.08C83.3274 21.4133 83.0808 21.8467 82.9608 22.38L81.0408 21.76C81.2008 21.2267 81.4541 20.7467 81.8008 20.32C82.1608 19.88 82.6341 19.5267 83.2208 19.26C83.8074 18.9933 84.5141 18.86 85.3408 18.86C86.6208 18.86 87.6274 19.1867 88.3608 19.84C89.0941 20.4933 89.4608 21.42 89.4608 22.62V26.68C89.4608 27.08 89.6474 27.28 90.0208 27.28H90.8608V29H89.3208C88.8541 29 88.4741 28.88 88.1808 28.64C87.8874 28.4 87.7408 28.0733 87.7408 27.66V27.6H87.4408C87.3341 27.8 87.1741 28.0333 86.9608 28.3C86.7474 28.5667 86.4341 28.8 86.0208 29C85.6074 29.1867 85.0608 29.28 84.3808 29.28ZM84.6808 27.58C85.5074 27.58 86.1741 27.3467 86.6808 26.88C87.1874 26.4 87.4408 25.7467 87.4408 24.92V24.72H84.5608C84.0141 24.72 83.5741 24.84 83.2408 25.08C82.9074 25.3067 82.7408 25.6467 82.7408 26.1C82.7408 26.5533 82.9141 26.9133 83.2608 27.18C83.6074 27.4467 84.0808 27.58 84.6808 27.58Z" fill="#D9D9D9"/>
<path d="M20.2325 19.4842H16.3829V12H20.2325C22.3101 12 24 13.6783 24 15.7417C24 17.805 22.3101 19.4842 20.2325 19.4842ZM17.6171 18.2583H20.2325C21.6296 18.2583 22.7657 17.1292 22.7657 15.7425C22.7657 14.3558 21.6288 13.2267 20.2325 13.2267H17.6171V18.2583ZM17.6171 19.4842H13.7683C11.6907 19.4842 10.0008 17.8058 10.0008 15.7425C10.0008 13.6792 11.6907 12 13.7683 12H17.618V19.4842H17.6171ZM13.7683 13.2258C12.3712 13.2258 11.2351 14.355 11.2351 15.7417C11.2351 17.1283 12.3712 18.2583 13.7683 18.2583H16.3837V13.2258H13.7683ZM17.6171 25.7417H13.7683C11.6907 25.7417 10.0008 24.0633 10.0008 22C10.0008 19.9367 11.6907 18.2583 13.7683 18.2583H17.618V25.7417H17.6171ZM13.7683 19.4842C12.3712 19.4842 11.2351 20.6133 11.2351 22C11.2351 23.3867 12.3721 24.5158 13.7683 24.5158H16.3837V19.4842H13.7683ZM13.7884 32C11.7 32 10 30.3217 10 28.2583C10 26.195 11.6899 24.5167 13.7675 24.5167H17.6171V28.2175C17.6171 30.3033 15.8996 32 13.7884 32ZM13.7683 25.7417C13.0967 25.7425 12.4529 26.0079 11.9781 26.4795C11.5032 26.9511 11.236 27.5905 11.2351 28.2575C11.2351 29.645 12.3805 30.7733 13.7893 30.7733C15.2199 30.7733 16.3845 29.6267 16.3845 28.2167V25.7417H13.7683ZM20.2325 25.7417H20.1503C18.0728 25.7417 16.3829 24.0633 16.3829 22C16.3829 19.9367 18.0728 18.2583 20.1503 18.2583H20.2325C22.3101 18.2583 24 19.9367 24 22C24 24.0633 22.3101 25.7417 20.2325 25.7417ZM20.1512 19.4842C18.7541 19.4842 17.618 20.6133 17.618 22C17.618 23.3867 18.7549 24.5158 20.1512 24.5158H20.2334C21.6304 24.5158 22.7666 23.3867 22.7666 22C22.7666 20.6133 21.6288 19.4842 20.2325 19.4842H20.1512Z" fill="#D9D9D9"/>
</svg>
