<svg width="113" height="53" viewBox="0 0 113 53" fill="none" xmlns="http://www.w3.org/2000/svg">
<rect x="0.5" y="0.5" width="102" height="43" rx="9.5" fill="#1A1A1A" stroke="#252525"/>
<path d="M41.46 30V16H43.62V28.04H50.36V30H41.46ZM52.3989 30V20.14H54.4589V30H52.3989ZM53.4389 18.8C53.0389 18.8 52.6989 18.6733 52.4189 18.42C52.1522 18.1533 52.0189 17.8133 52.0189 17.4C52.0189 16.9867 52.1522 16.6533 52.4189 16.4C52.6989 16.1333 53.0389 16 53.4389 16C53.8522 16 54.1922 16.1333 54.4589 16.4C54.7256 16.6533 54.8589 16.9867 54.8589 17.4C54.8589 17.8133 54.7256 18.1533 54.4589 18.42C54.1922 18.6733 53.8522 18.8 53.4389 18.8ZM57.5161 30V20.14H59.5361V21.62H59.8561C60.0428 21.22 60.3761 20.8467 60.8561 20.5C61.3361 20.1533 62.0494 19.98 62.9961 19.98C63.7428 19.98 64.4028 20.1467 64.9761 20.48C65.5628 20.8133 66.0228 21.2867 66.3561 21.9C66.6894 22.5 66.8561 23.2267 66.8561 24.08V30H64.7961V24.24C64.7961 23.3867 64.5828 22.76 64.1561 22.36C63.7294 21.9467 63.1428 21.74 62.3961 21.74C61.5428 21.74 60.8561 22.02 60.3361 22.58C59.8294 23.14 59.5761 23.9533 59.5761 25.02V30H57.5161ZM73.4445 30.18C72.6979 30.18 72.0312 30.0133 71.4445 29.68C70.8579 29.3467 70.3979 28.8733 70.0645 28.26C69.7312 27.6467 69.5645 26.9133 69.5645 26.06V20.14H71.6245V25.92C71.6245 26.7733 71.8379 27.4067 72.2645 27.82C72.6912 28.22 73.2845 28.42 74.0445 28.42C74.8845 28.42 75.5579 28.14 76.0645 27.58C76.5845 27.0067 76.8445 26.1867 76.8445 25.12V20.14H78.9045V30H76.8845V28.52H76.5645C76.3779 28.92 76.0445 29.3 75.5645 29.66C75.0845 30.0067 74.3779 30.18 73.4445 30.18ZM81.1097 30L84.8697 25.02L81.1897 20.14H83.6097L86.1897 23.68H86.5097L89.0897 20.14H91.5297L87.8297 25.02L91.5897 30H89.1297L86.5097 26.38H86.1897L83.5697 30H81.1097Z" fill="#D9D9D9"/>
<path d="M20.5099 10C20.3531 10 20.1913 10.008 20.0244 10.021C15.7495 10.354 16.8835 14.8281 16.8177 16.3191C16.7408 17.4111 16.5142 18.2721 15.7556 19.3391C14.8603 20.3901 13.604 22.0891 13.0082 23.8602C12.727 24.6922 12.5934 25.5442 12.7179 26.3492C12.6717 26.3861 12.6338 26.4321 12.6066 26.4842C12.3436 26.7522 12.1514 27.0842 11.9359 27.3232C11.7346 27.5222 11.4453 27.5902 11.1297 27.7232C10.8131 27.8592 10.4641 27.9922 10.2557 28.4032C10.1647 28.5922 10.1181 28.7972 10.1222 29.0052C10.1222 29.2042 10.1495 29.4052 10.1778 29.5412C10.2365 29.9402 10.2952 30.2692 10.2183 30.5112C9.96641 31.1912 9.93505 31.6563 10.1111 31.9953C10.2871 32.3293 10.6522 32.4653 11.0619 32.5963C11.8813 32.7963 12.994 32.7313 13.868 33.1963C14.8047 33.6623 15.7556 33.8663 16.5142 33.6663C17.0463 33.5503 17.4955 33.2023 17.7362 32.7203C18.33 32.7173 18.9804 32.4513 20.0223 32.3863C20.7294 32.3283 21.6145 32.6533 22.6291 32.5863C22.6544 32.7203 22.6929 32.7843 22.7445 32.9193L22.7475 32.9223C23.143 33.7003 23.8734 34.0543 24.6533 33.9933C25.4332 33.9333 26.2637 33.4573 26.9364 32.6873C27.5747 31.9223 28.6388 31.6032 29.3419 31.1842C29.6939 30.9852 29.9781 30.7152 29.9984 30.3312C30.0216 29.9312 29.7961 29.5202 29.2761 28.9552V28.8582L29.2731 28.8552C29.1011 28.6552 29.0202 28.3202 28.9312 27.9292C28.8452 27.5282 28.7471 27.1432 28.4335 26.8832H28.4305C28.3708 26.8292 28.306 26.8162 28.2403 26.7482C28.1837 26.7091 28.117 26.6869 28.0481 26.6842C28.4841 25.4062 28.3151 24.1342 27.8731 22.9901C27.3339 21.5801 26.3911 20.3521 25.6729 19.5071C24.8677 18.5021 24.0787 17.5501 24.0949 16.1391C24.1212 13.987 24.3336 10.006 20.5099 10ZM21.045 13.405H21.0582C21.2736 13.405 21.4588 13.467 21.6489 13.603C21.8411 13.738 21.9828 13.935 22.092 14.136C22.1982 14.3951 22.2518 14.5951 22.2599 14.8601C22.2599 14.8401 22.266 14.8201 22.266 14.8001V14.9051C22.2638 14.8983 22.2624 14.8912 22.2619 14.8841L22.2579 14.8601C22.2559 15.1031 22.2043 15.3432 22.1062 15.5661C22.0589 15.6914 21.9855 15.8056 21.8907 15.9011C21.862 15.8851 21.8323 15.871 21.8017 15.8591C21.6965 15.8141 21.6014 15.7951 21.5144 15.7261C21.4423 15.6977 21.3678 15.6756 21.2919 15.6601C21.3424 15.6001 21.4395 15.5271 21.477 15.4621C21.5306 15.3341 21.5599 15.1981 21.566 15.0601V15.0401C21.5683 14.9042 21.5474 14.769 21.5043 14.6401C21.4588 14.5061 21.4021 14.4401 21.3192 14.307C21.2342 14.241 21.1502 14.175 21.0491 14.175H21.0329C20.9388 14.175 20.8549 14.205 20.7679 14.307C20.6718 14.3997 20.6005 14.5144 20.5605 14.6411C20.5068 14.7681 20.476 14.9035 20.4695 15.0411V15.0601C20.4715 15.1491 20.4775 15.2391 20.4897 15.3271C20.2945 15.2601 20.0466 15.1921 19.8757 15.1251C19.8655 15.0588 19.8594 14.992 19.8575 14.9251V14.9051C19.8495 14.6411 19.9014 14.3787 20.0092 14.137C20.0921 13.917 20.2439 13.731 20.4442 13.604C20.6171 13.4745 20.8281 13.4053 21.045 13.405ZM18.0488 13.464H18.0852C18.2288 13.464 18.3583 13.512 18.4888 13.599C18.6365 13.728 18.7559 13.887 18.8368 14.064C18.9278 14.263 18.9784 14.4641 18.9916 14.7311V14.7351C18.9986 14.8691 18.9976 14.9351 18.9895 15.0011V15.0811C18.9592 15.0881 18.9329 15.0991 18.9056 15.1051C18.7518 15.1601 18.6284 15.2401 18.508 15.3051C18.5202 15.2151 18.5212 15.1251 18.5111 15.0381V15.0231C18.4989 14.8901 18.4706 14.8231 18.4281 14.6901C18.3966 14.5881 18.3387 14.4961 18.2602 14.4231C18.2353 14.4006 18.206 14.3834 18.1742 14.3724C18.1424 14.3614 18.1087 14.3569 18.0751 14.3591H18.0538C17.982 14.3651 17.9223 14.3991 17.8657 14.4911C17.8012 14.5685 17.7592 14.6618 17.7443 14.7611C17.717 14.8688 17.7091 14.9806 17.721 15.0911V15.1061C17.7332 15.2411 17.7585 15.3061 17.802 15.4401C17.8485 15.5741 17.9011 15.6401 17.9699 15.7081C17.98 15.7171 17.9901 15.7261 18.0043 15.7321C17.9335 15.7891 17.8859 15.8021 17.8262 15.8681C17.7884 15.9012 17.7429 15.9245 17.6937 15.9361C17.5886 15.8109 17.4954 15.6763 17.4156 15.5341C17.3199 15.3239 17.2667 15.0974 17.2588 14.8671C17.242 14.6413 17.2695 14.4145 17.3397 14.199C17.3954 14.0026 17.493 13.8201 17.626 13.664C17.7554 13.531 17.889 13.464 18.0488 13.464ZM19.4346 15.1701C19.7705 15.1701 20.1761 15.2351 20.6647 15.5691C20.9611 15.7691 21.1937 15.8381 21.7289 16.0371H21.7319C21.9898 16.1731 22.1416 16.3031 22.2154 16.4361V16.3051C22.2517 16.3778 22.2719 16.4573 22.2747 16.5384C22.2775 16.6194 22.2628 16.7001 22.2316 16.7751C22.1072 17.0851 21.7096 17.4181 21.1563 17.6171V17.6191C20.8852 17.7541 20.6495 17.9521 20.3723 18.0841C20.0932 18.2191 19.7775 18.3761 19.3486 18.3511C19.1946 18.359 19.0405 18.3362 18.8955 18.2841C18.7834 18.2238 18.6747 18.1577 18.5697 18.0861C18.3725 17.9511 18.2025 17.7541 17.9507 17.6211V17.6161H17.9456C17.541 17.3701 17.3225 17.1041 17.2517 16.9061C17.1809 16.6381 17.2466 16.4361 17.4469 16.3061C17.6735 16.1711 17.8313 16.0351 17.9355 15.9701C18.0407 15.8961 18.0801 15.8681 18.1135 15.8391H18.1156V15.8361C18.2865 15.6341 18.5566 15.3661 18.9643 15.2351C19.1049 15.1991 19.2617 15.1701 19.4356 15.1701H19.4346ZM22.267 17.3121C22.6291 18.7291 23.4768 20.7871 24.0221 21.7851C24.3114 22.3191 24.8869 23.4442 25.1368 24.8092C25.2946 24.8042 25.4706 24.8272 25.6557 24.8732C26.3092 23.2022 25.1034 21.4061 24.5541 20.9071C24.3316 20.7071 24.3195 20.5721 24.4297 20.5721C25.0265 21.1061 25.8105 22.1441 26.0948 23.3292C26.2263 23.8642 26.2566 24.4332 26.116 24.9992C26.1838 25.0272 26.2526 25.0592 26.3234 25.0662C27.3673 25.6002 27.7527 26.0042 27.5676 26.6032V26.5602C27.5069 26.5572 27.4462 26.5602 27.3855 26.5602H27.3693C27.5221 26.0932 27.1852 25.7352 26.292 25.3362C25.3664 24.9362 24.627 25.0002 24.5015 25.8012C24.4935 25.8442 24.4884 25.8672 24.4833 25.9362C24.4145 25.9592 24.3427 25.9892 24.2719 26.0002C23.8369 26.2682 23.6023 26.6692 23.4698 27.1872C23.3382 27.7202 23.2978 28.3432 23.2624 29.0562V29.0592C23.2421 29.3932 23.0904 29.8972 22.9397 30.4092C21.4223 31.4812 19.3183 31.9473 17.5299 30.7432C17.4176 30.5493 17.281 30.3702 17.1232 30.2102C17.0478 30.0861 16.9541 29.9739 16.845 29.8772C17.0291 29.8772 17.1869 29.8472 17.3154 29.8102C17.4609 29.7435 17.5747 29.6239 17.633 29.4762C17.7423 29.2092 17.633 28.7792 17.284 28.3132C16.9351 27.8462 16.3423 27.3182 15.4754 26.7922C14.8381 26.3922 14.478 25.9222 14.3121 25.3962C14.1452 24.8622 14.1674 24.3112 14.2969 23.7512C14.5447 22.6811 15.18 21.6411 15.5856 20.9881C15.6939 20.9231 15.6231 21.1231 15.1729 21.9621C14.7723 22.7131 14.0197 24.4592 15.0495 25.8162C15.0884 24.8261 15.3102 23.8513 15.704 22.9401C16.2745 21.6621 17.4671 19.4361 17.5612 17.6721C17.6098 17.7081 17.7807 17.8071 17.8536 17.8741C18.0741 18.0071 18.238 18.2071 18.4504 18.3391C18.6628 18.5401 18.9329 18.6741 19.3365 18.6741C19.376 18.6771 19.4124 18.6801 19.4478 18.6801C19.8645 18.6801 20.1862 18.5461 20.4563 18.4121C20.7497 18.2781 20.9823 18.0781 21.2049 18.0121H21.2099C21.6823 17.8771 22.0546 17.6101 22.266 17.3121H22.267ZM24.4773 26.2702C24.5147 26.8702 24.8242 27.5152 25.3695 27.6472C25.9643 27.7812 26.82 27.3142 27.1812 26.8822L27.3946 26.8722C27.7133 26.8652 27.9783 26.8822 28.2514 27.1402L28.2544 27.1432C28.4648 27.3422 28.563 27.6732 28.65 28.0192C28.7359 28.4192 28.8057 28.7992 29.0637 29.0852C29.5553 29.6122 29.7161 29.9912 29.707 30.2252L29.7101 30.2182V30.2362L29.707 30.2252C29.6919 30.4872 29.5199 30.6202 29.2033 30.8192C28.566 31.2202 27.4371 31.5312 26.7179 32.3893C26.0927 33.1263 25.332 33.5293 24.6583 33.5803C23.9867 33.6333 23.407 33.3803 23.0661 32.6823L23.0611 32.6793C22.8487 32.2793 22.9397 31.6543 23.1177 30.9892C23.2958 30.3212 23.5507 29.6452 23.5861 29.0922C23.6235 28.3782 23.663 27.7572 23.7833 27.2782C23.9047 26.8132 24.0949 26.4812 24.4317 26.2942L24.4773 26.2722V26.2702ZM13.5382 26.3192H13.5483C13.602 26.3192 13.6546 26.3242 13.7072 26.3332C14.0875 26.3882 14.4213 26.6662 14.742 27.0852L15.6625 28.7492L15.6655 28.7522C15.9114 29.2852 16.4283 29.8162 16.8683 30.3892C17.3073 30.9872 17.6472 31.5202 17.6057 31.9593V31.9653C17.5481 32.7093 17.1202 33.1133 16.4677 33.2593C15.8153 33.3943 14.9301 33.2613 14.045 32.7953C13.0658 32.2593 11.9025 32.3263 11.155 32.1933C10.7817 32.1273 10.5379 31.9933 10.4236 31.7933C10.3124 31.5932 10.3093 31.1912 10.5481 30.5632V30.5592L10.5501 30.5562C10.6684 30.2222 10.5804 29.8042 10.5228 29.4382C10.4671 29.0372 10.4388 28.7282 10.5663 28.4982C10.7281 28.1642 10.9668 28.0982 11.2642 27.9652C11.5616 27.8302 11.9116 27.7632 12.1898 27.4952H12.1918V27.4932C12.4508 27.2252 12.642 26.8922 12.8676 26.6552C13.0598 26.4542 13.252 26.3192 13.5382 26.3192ZM20.78 17.2451C20.34 17.4461 19.8241 17.7801 19.2748 17.7801C18.7265 17.7801 18.2936 17.5131 17.98 17.3141C17.8242 17.1801 17.6968 17.0461 17.6027 16.9791C17.4368 16.8451 17.457 16.6461 17.5278 16.6461C17.6381 16.6621 17.6583 16.7801 17.7291 16.8461C17.8262 16.9121 17.9466 17.0461 18.0933 17.1791C18.3887 17.3791 18.7812 17.6461 19.2738 17.6461C19.7644 17.6461 20.339 17.3791 20.688 17.1801C20.8852 17.0451 21.1381 16.8461 21.3434 16.7131C21.5013 16.5771 21.4942 16.4461 21.6257 16.4461C21.7552 16.4621 21.6601 16.5801 21.477 16.7781C21.2526 16.9458 21.0196 17.102 20.779 17.2461L20.78 17.2451ZM19.6855 15.6621V15.6401C19.6794 15.6201 19.6986 15.5981 19.7148 15.5901C19.7897 15.5471 19.8969 15.5631 19.9778 15.5941C20.0416 15.5941 20.1397 15.6611 20.1296 15.7291C20.1235 15.7781 20.0436 15.7951 19.993 15.7951C19.9374 15.7951 19.8999 15.7521 19.8504 15.7271C19.7978 15.7091 19.7027 15.7191 19.6855 15.6621ZM19.1281 15.6621C19.1079 15.7201 19.0138 15.7111 18.9602 15.7281C18.9127 15.7531 18.8732 15.7961 18.8186 15.7961C18.768 15.7961 18.6871 15.7761 18.681 15.7281C18.6709 15.6621 18.77 15.5951 18.8327 15.5951C18.9137 15.5641 19.0189 15.5481 19.0947 15.5901C19.114 15.5991 19.1312 15.6201 19.1251 15.6401V15.6601H19.1281V15.6621Z" fill="#D9D9D9"/>
</svg>
