<svg width="127" height="53" viewBox="0 0 127 53" fill="none" xmlns="http://www.w3.org/2000/svg">
<rect x="0.5" y="0.5" width="116" height="43" rx="9.5" fill="#1A1A1A" stroke="#252525"/>
<path d="M41.46 29V15H45.52L48.58 27.56H48.9L51.96 15H56.02V29H53.92V16.52H53.6L50.56 29H46.92L43.88 16.52H43.56V29H41.46ZM60.1405 33V31.2H65.6405C66.0138 31.2 66.2005 31 66.2005 30.6V27.56H65.8805C65.7605 27.8267 65.5738 28.0867 65.3205 28.34C65.0805 28.58 64.7538 28.78 64.3405 28.94C63.9271 29.1 63.4071 29.18 62.7805 29.18C62.0338 29.18 61.3671 29.0133 60.7805 28.68C60.1938 28.3467 59.7338 27.8733 59.4005 27.26C59.0671 26.6467 58.9005 25.92 58.9005 25.08V19.14H60.9605V24.92C60.9605 25.7733 61.1738 26.4067 61.6005 26.82C62.0271 27.22 62.6205 27.42 63.3805 27.42C64.2205 27.42 64.8938 27.14 65.4005 26.58C65.9205 26.02 66.1805 25.2067 66.1805 24.14V19.14H68.2405V31.02C68.2405 31.62 68.0605 32.1 67.7005 32.46C67.3538 32.82 66.8738 33 66.2605 33H60.1405ZM75.9856 29.28C74.9323 29.28 73.999 29.0933 73.1856 28.72C72.3723 28.3467 71.7323 27.8 71.2656 27.08C70.8123 26.3467 70.5856 25.46 70.5856 24.42V23.92H72.7256V24.42C72.7256 25.4067 73.019 26.1467 73.6056 26.64C74.2056 27.1333 74.999 27.38 75.9856 27.38C76.9856 27.38 77.739 27.1733 78.2456 26.76C78.7523 26.3333 79.0056 25.7867 79.0056 25.12C79.0056 24.68 78.8856 24.32 78.6456 24.04C78.4056 23.76 78.0656 23.54 77.6256 23.38C77.1856 23.2067 76.659 23.0467 76.0456 22.9L75.3056 22.72C74.4123 22.5067 73.6323 22.2467 72.9656 21.94C72.3123 21.62 71.8056 21.2 71.4456 20.68C71.0856 20.16 70.9056 19.4933 70.9056 18.68C70.9056 17.8533 71.1056 17.1467 71.5056 16.56C71.919 15.9733 72.4856 15.52 73.2056 15.2C73.9256 14.88 74.7723 14.72 75.7456 14.72C76.719 14.72 77.5856 14.8867 78.3456 15.22C79.119 15.5533 79.7256 16.0467 80.1656 16.7C80.6056 17.3533 80.8256 18.1733 80.8256 19.16V19.88H78.6856V19.16C78.6856 18.56 78.559 18.0733 78.3056 17.7C78.0656 17.3267 77.7256 17.0533 77.2856 16.88C76.8456 16.7067 76.3323 16.62 75.7456 16.62C74.8923 16.62 74.2256 16.8 73.7456 17.16C73.279 17.5067 73.0456 17.9933 73.0456 18.62C73.0456 19.0467 73.1456 19.4 73.3456 19.68C73.559 19.9467 73.8656 20.1667 74.2656 20.34C74.6656 20.5133 75.1656 20.6667 75.7656 20.8L76.5056 20.98C77.4123 21.18 78.2123 21.44 78.9056 21.76C79.599 22.0667 80.1456 22.4867 80.5456 23.02C80.9456 23.5533 81.1456 24.24 81.1456 25.08C81.1456 25.92 80.9323 26.6533 80.5056 27.28C80.0923 27.9067 79.499 28.4 78.7256 28.76C77.9523 29.1067 77.039 29.28 75.9856 29.28ZM88.6731 29.28C86.9531 29.28 85.5865 28.8 84.5731 27.84C83.5598 26.8667 83.0531 25.4667 83.0531 23.64V20.36C83.0531 18.5333 83.5598 17.14 84.5731 16.18C85.5865 15.2067 86.9531 14.72 88.6731 14.72C90.3931 14.72 91.7598 15.2067 92.7731 16.18C93.7998 17.14 94.3131 18.5333 94.3131 20.36V23.64C94.3131 25.4667 93.7998 26.8667 92.7731 27.84C91.7598 28.8 90.3931 29.28 88.6731 29.28ZM88.6731 27.34C89.7798 27.34 90.6331 27.02 91.2331 26.38C91.8331 25.7267 92.1331 24.84 92.1331 23.72V20.28C92.1331 19.16 91.8331 18.28 91.2331 17.64C90.6331 16.9867 89.7798 16.66 88.6731 16.66C87.5931 16.66 86.7465 16.9867 86.1331 17.64C85.5198 18.28 85.2131 19.16 85.2131 20.28V23.72C85.2131 24.84 85.5198 25.7267 86.1331 26.38C86.7465 27.02 87.5931 27.34 88.6731 27.34ZM89.5331 32.42C88.9598 32.42 88.4931 32.24 88.1331 31.88C87.7865 31.5333 87.6131 31.06 87.6131 30.46V29H89.7331V30.1C89.7331 30.5 89.9198 30.7 90.2931 30.7H91.5331V32.42H89.5331ZM96.8702 29V15H99.0302V27.04H105.77V29H96.8702Z" fill="#D9D9D9"/>
<path d="M23.6708 16.4174C23.575 16.4174 23.51 16.4294 23.4425 16.4457V16.4569H23.4542C23.4992 16.5462 23.5758 16.6115 23.6325 16.6914C23.6775 16.7833 23.7158 16.8753 23.7608 16.9663L23.7725 16.9534C23.8508 16.8967 23.8892 16.8057 23.8892 16.6674C23.8558 16.627 23.8508 16.5866 23.8225 16.5471C23.7892 16.4895 23.7175 16.4612 23.6725 16.4157L23.6708 16.4174ZM14.8083 27.7518H14.0358C14.0141 26.4862 13.939 25.2222 13.8108 23.9633H13.8042L12.6292 27.7518H12.0417L10.875 23.9633H10.8667C10.7754 25.2242 10.7212 26.4876 10.7042 27.7518H10C10.0458 26.0629 10.16 24.4788 10.3417 23.0012H11.3L12.4125 26.4924H12.4192L13.5417 23.0012H14.4542C14.6558 24.7322 14.7742 26.3172 14.8108 27.7518H14.8083ZM18.1558 24.2468C17.8408 26.0036 17.4258 27.2819 16.9125 28.0782C16.5108 28.6933 16.0708 29 15.5933 29C15.4658 29 15.31 28.9605 15.1217 28.8814V28.4571C15.2133 28.4717 15.3217 28.4794 15.4433 28.4794C15.6667 28.4794 15.8458 28.415 15.9825 28.2887C16.1467 28.1341 16.2283 27.9605 16.2283 27.769C16.2283 27.6358 16.1642 27.3652 16.0367 26.958L15.1917 24.2468H15.95L16.5558 26.2742C16.6925 26.7347 16.75 27.056 16.7267 27.2389C17.06 26.3249 17.2917 25.3258 17.4225 24.2468H18.1558ZM28.4267 27.7518H26.235V23.0012H26.9725V27.1676H28.4267V27.7518ZM25.66 27.8678L24.8133 27.4382C24.8883 27.3729 24.9608 27.3025 25.0258 27.2235C25.3867 26.7888 25.5658 26.1428 25.5658 25.288C25.5658 23.7159 24.9675 22.929 23.77 22.929C23.1833 22.929 22.725 23.1283 22.395 23.5278C22.0367 23.9642 21.8567 24.6068 21.8567 25.4564C21.8567 26.2914 22.015 26.9048 22.335 27.2948C22.6267 27.647 23.0658 27.8231 23.6542 27.8231C23.8742 27.8231 24.0758 27.7947 24.2583 27.7389L25.3625 28.4021L25.6625 27.8678H25.66ZM22.9167 26.8008C22.7292 26.4916 22.6358 25.9933 22.6358 25.3095C22.6358 24.1128 22.9892 23.5141 23.6942 23.5141C24.0633 23.5141 24.3358 23.6575 24.5083 23.9436C24.695 24.2546 24.7883 24.7477 24.7883 25.4237C24.7883 26.6299 24.435 27.2346 23.73 27.2346C23.3592 27.2346 23.0883 27.0912 22.915 26.8051L22.9167 26.8008ZM21.535 26.4357C21.535 26.8395 21.3917 27.1711 21.105 27.4288C20.8183 27.6865 20.4358 27.8154 19.9517 27.8154C19.4992 27.8154 19.065 27.6676 18.6408 27.3729L18.8383 26.964C19.2033 27.153 19.5325 27.2458 19.83 27.2458C20.1067 27.2458 20.3242 27.1831 20.4825 27.0568C20.5616 26.9953 20.6255 26.9154 20.669 26.8236C20.7124 26.7317 20.7342 26.6306 20.7325 26.5285C20.7325 26.245 20.5408 26.0045 20.1925 25.8026C19.8692 25.6196 19.2233 25.2382 19.2233 25.2382C18.8717 24.9745 18.6967 24.6918 18.6967 24.2271C18.6967 23.8405 18.8275 23.5312 19.0883 23.295C19.3508 23.0562 19.6883 22.9385 20.105 22.9385C20.5317 22.9385 20.9217 23.0553 21.2717 23.2907L21.0942 23.6996C20.8145 23.573 20.5129 23.5058 20.2075 23.502C19.9717 23.502 19.7892 23.5604 19.6625 23.679C19.5982 23.7339 19.5464 23.8026 19.5107 23.8804C19.475 23.9582 19.4563 24.0431 19.4558 24.1291C19.4558 24.4109 19.6508 24.6532 20.0108 24.8593C20.3383 25.044 21 25.4349 21 25.4349C21.3608 25.6969 21.54 25.9761 21.54 26.4383L21.535 26.4357ZM29.3533 21.4085C28.9075 21.3965 28.5617 21.4429 28.2725 21.57C28.1892 21.6044 28.0558 21.6044 28.0442 21.7135C28.09 21.759 28.0967 21.8337 28.1358 21.8973C28.2025 22.0124 28.3175 22.1662 28.4242 22.2469C28.5408 22.3414 28.6575 22.4325 28.78 22.5133C28.9967 22.6507 29.2425 22.7323 29.455 22.8706C29.5758 22.9514 29.6992 23.0536 29.8217 23.1395C29.8825 23.1825 29.9217 23.2598 30 23.2873V23.2701C29.9617 23.2185 29.95 23.1438 29.9125 23.0862C29.8567 23.0287 29.8008 22.9771 29.7458 22.9205C29.5822 22.6982 29.387 22.5027 29.1667 22.3406C28.9883 22.2152 28.5983 22.0399 28.525 21.8294L28.5142 21.8174C28.6358 21.8063 28.7808 21.7607 28.8975 21.7264C29.0867 21.6748 29.26 21.686 29.4558 21.6353C29.5442 21.6121 29.6333 21.5838 29.7225 21.5545V21.503C29.6225 21.3999 29.5475 21.2599 29.4442 21.1637C29.1557 20.9038 28.8481 20.6674 28.5242 20.4567C28.3492 20.3416 28.1275 20.2677 27.9433 20.1697C27.8767 20.1354 27.765 20.1182 27.7267 20.0606C27.6267 19.9352 27.5683 19.7686 27.4975 19.6191C27.3339 19.2919 27.1818 18.9586 27.0417 18.62C26.9417 18.3949 26.8808 18.1707 26.7583 17.9645C26.1833 16.9878 25.5608 16.3959 24.6033 15.8169C24.3975 15.6966 24.1508 15.6451 23.89 15.5815C23.7508 15.5747 23.6117 15.5643 23.4733 15.5583C23.3817 15.518 23.2933 15.4089 23.215 15.3565C22.8983 15.1503 22.0783 14.7036 21.845 15.2946C21.695 15.6674 22.0675 16.0351 22.1967 16.2241C22.2925 16.3555 22.4133 16.5059 22.48 16.6536C22.5192 16.7533 22.53 16.8555 22.5692 16.9595C22.6575 17.212 22.7417 17.4938 22.8583 17.73C22.9192 17.8503 22.9858 17.9766 23.0642 18.0848C23.1092 18.1475 23.1858 18.1767 23.2033 18.2798C23.125 18.3967 23.12 18.5667 23.075 18.7094C22.875 19.3597 22.9533 20.1637 23.2367 20.6422C23.3258 20.7848 23.5383 21.101 23.8225 20.9798C24.0725 20.8768 24.0175 20.5503 24.0892 20.2625C24.1058 20.1938 24.095 20.1483 24.1292 20.1019V20.1148C24.2075 20.2763 24.2858 20.43 24.3575 20.5915C24.5292 20.8733 24.8292 21.1654 25.08 21.3604C25.2133 21.4635 25.3192 21.6422 25.4858 21.7057V21.6886H25.4733C25.4375 21.6387 25.39 21.6147 25.345 21.5743C25.2393 21.4677 25.1418 21.3528 25.0533 21.2307C24.8185 20.9 24.6103 20.55 24.4308 20.1844C24.3392 20.004 24.2625 19.8098 24.1892 19.632C24.1558 19.5633 24.1558 19.4602 24.1 19.4258C24.0167 19.5512 23.8942 19.6603 23.8333 19.815C23.7275 20.0624 23.7167 20.3665 23.6767 20.6826C23.6542 20.6886 23.665 20.6826 23.6542 20.6946C23.4758 20.65 23.415 20.4593 23.3483 20.2995C23.1817 19.8914 23.1542 19.236 23.2983 18.766C23.3375 18.6458 23.5042 18.2661 23.4375 18.151C23.4025 18.0419 23.2925 17.9792 23.2317 17.8907C23.1534 17.7755 23.0864 17.6526 23.0317 17.5239C22.8983 17.2026 22.8317 16.8469 22.6867 16.5256C22.62 16.377 22.5033 16.2215 22.4083 16.0849C22.3025 15.9303 22.1858 15.8212 22.1017 15.6382C22.0742 15.5755 22.035 15.4716 22.0792 15.4028C22.0908 15.3565 22.1142 15.3384 22.1575 15.3255C22.2308 15.2637 22.4367 15.3444 22.5092 15.3788C22.715 15.4647 22.8883 15.5454 23.0608 15.6657C23.1392 15.7224 23.2233 15.8315 23.3233 15.8599H23.44C23.6183 15.9002 23.8192 15.8719 23.9858 15.9226C24.2817 16.0205 24.5483 16.1631 24.7875 16.3177C25.5244 16.803 26.1239 17.4805 26.525 18.2815C26.5917 18.4138 26.6208 18.535 26.6817 18.6724C26.7983 18.9559 26.9425 19.242 27.0608 19.516C27.1775 19.7866 27.29 20.0624 27.4575 20.2866C27.5408 20.4068 27.8758 20.4696 28.0258 20.5323C28.1367 20.5838 28.3092 20.6311 28.4092 20.6938C28.6008 20.814 28.7875 20.9515 28.9675 21.0838C29.0592 21.1491 29.3367 21.2925 29.3533 21.4085Z" fill="#D9D9D9"/>
</svg>
