<svg width="171" height="53" viewBox="0 0 171 53" fill="none" xmlns="http://www.w3.org/2000/svg">
<rect x="0.5" y="0.5" width="160" height="43" rx="9.5" fill="#1A1A1A" stroke="#252525"/>
<path d="M41.46 29V15H45.62L49.42 27.56H49.74V15H51.88V29H47.72L43.92 16.42H43.6V29H41.46ZM59.3798 29.28C58.3798 29.28 57.5065 29.0733 56.7598 28.66C56.0132 28.2333 55.4265 27.64 54.9998 26.88C54.5865 26.1067 54.3798 25.2133 54.3798 24.2V23.96C54.3798 22.9333 54.5865 22.04 54.9998 21.28C55.4132 20.5067 55.9865 19.9133 56.7198 19.5C57.4665 19.0733 58.3265 18.86 59.2998 18.86C60.2465 18.86 61.0732 19.0733 61.7798 19.5C62.4998 19.9133 63.0598 20.4933 63.4598 21.24C63.8598 21.9867 64.0598 22.86 64.0598 23.86V24.64H56.4798C56.5065 25.5067 56.7932 26.2 57.3398 26.72C57.8998 27.2267 58.5932 27.48 59.4198 27.48C60.1932 27.48 60.7732 27.3067 61.1598 26.96C61.5598 26.6133 61.8665 26.2133 62.0798 25.76L63.7798 26.64C63.5932 27.0133 63.3198 27.4067 62.9598 27.82C62.6132 28.2333 62.1532 28.58 61.5798 28.86C61.0065 29.14 60.2732 29.28 59.3798 29.28ZM56.4998 23.06H61.9598C61.9065 22.3133 61.6398 21.7333 61.1598 21.32C60.6798 20.8933 60.0532 20.68 59.2798 20.68C58.5065 20.68 57.8732 20.8933 57.3798 21.32C56.8998 21.7333 56.6065 22.3133 56.4998 23.06ZM69.8684 29C69.2684 29 68.7884 28.82 68.4284 28.46C68.0818 28.1 67.9084 27.62 67.9084 27.02V20.88H65.1884V19.14H67.9084V15.88H69.9684V19.14H72.9084V20.88H69.9684V26.66C69.9684 27.06 70.1551 27.26 70.5284 27.26H72.5884V29H69.8684ZM76.4086 29L74.7286 19.14H76.7886L78.0286 27.62H78.3486L80.0686 19.14H83.4086L85.1086 27.62H85.4286L86.6686 19.14H88.7286L87.0486 29H83.5886L81.8886 20.54H81.5686L79.8686 29H76.4086ZM95.6713 29.28C94.6846 29.28 93.8046 29.08 93.0313 28.68C92.2713 28.2667 91.6713 27.68 91.2313 26.92C90.7913 26.16 90.5713 25.26 90.5713 24.22V23.92C90.5713 22.88 90.7913 21.9867 91.2313 21.24C91.6713 20.48 92.2713 19.8933 93.0313 19.48C93.8046 19.0667 94.6846 18.86 95.6713 18.86C96.6579 18.86 97.5379 19.0667 98.3113 19.48C99.0846 19.8933 99.6913 20.48 100.131 21.24C100.571 21.9867 100.791 22.88 100.791 23.92V24.22C100.791 25.26 100.571 26.16 100.131 26.92C99.6913 27.68 99.0846 28.2667 98.3113 28.68C97.5379 29.08 96.6579 29.28 95.6713 29.28ZM95.6713 27.44C96.5779 27.44 97.3113 27.1533 97.8713 26.58C98.4446 25.9933 98.7313 25.1867 98.7313 24.16V23.98C98.7313 22.9533 98.4513 22.1533 97.8913 21.58C97.3313 20.9933 96.5913 20.7 95.6713 20.7C94.7779 20.7 94.0446 20.9933 93.4713 21.58C92.9113 22.1533 92.6313 22.9533 92.6313 23.98V24.16C92.6313 25.1867 92.9113 25.9933 93.4713 26.58C94.0446 27.1533 94.7779 27.44 95.6713 27.44ZM103.356 29V19.14H105.376V20.3H105.696C105.856 19.8867 106.109 19.5867 106.456 19.4C106.816 19.2 107.256 19.1 107.776 19.1H108.956V20.96H107.696C107.029 20.96 106.483 21.1467 106.056 21.52C105.629 21.88 105.416 22.44 105.416 23.2V29H103.356ZM111.09 29V15H113.15V22.98H113.47L117.35 19.14H120.09L115.11 23.92L120.25 29H117.53L113.47 24.9H113.15V29H111.09ZM122.106 29V19.14H124.166V29H122.106ZM123.146 17.8C122.746 17.8 122.406 17.6733 122.126 17.42C121.859 17.1533 121.726 16.8133 121.726 16.4C121.726 15.9867 121.859 15.6533 122.126 15.4C122.406 15.1333 122.746 15 123.146 15C123.559 15 123.899 15.1333 124.166 15.4C124.433 15.6533 124.566 15.9867 124.566 16.4C124.566 16.8133 124.433 17.1533 124.166 17.42C123.899 17.6733 123.559 17.8 123.146 17.8ZM127.223 29V19.14H129.243V20.62H129.563C129.75 20.22 130.083 19.8467 130.563 19.5C131.043 19.1533 131.756 18.98 132.703 18.98C133.45 18.98 134.11 19.1467 134.683 19.48C135.27 19.8133 135.73 20.2867 136.063 20.9C136.396 21.5 136.563 22.2267 136.563 23.08V29H134.503V23.24C134.503 22.3867 134.29 21.76 133.863 21.36C133.436 20.9467 132.85 20.74 132.103 20.74C131.25 20.74 130.563 21.02 130.043 21.58C129.536 22.14 129.283 22.9533 129.283 24.02V29H127.223ZM139.048 24.12V23.82C139.048 22.78 139.254 21.8933 139.668 21.16C140.094 20.4267 140.654 19.86 141.348 19.46C142.041 19.06 142.801 18.86 143.628 18.86C144.588 18.86 145.321 19.04 145.828 19.4C146.348 19.76 146.728 20.1467 146.968 20.56H147.288V19.14H149.288V31.02C149.288 31.62 149.108 32.1 148.748 32.46C148.401 32.82 147.921 33 147.308 33H140.668V31.2H146.668C147.054 31.2 147.248 31 147.248 30.6V27.46H146.928C146.781 27.7 146.574 27.9467 146.308 28.2C146.041 28.4533 145.688 28.66 145.248 28.82C144.821 28.98 144.281 29.06 143.628 29.06C142.801 29.06 142.034 28.8667 141.328 28.48C140.634 28.08 140.081 27.5133 139.668 26.78C139.254 26.0333 139.048 25.1467 139.048 24.12ZM144.188 27.26C145.081 27.26 145.814 26.98 146.388 26.42C146.974 25.8467 147.268 25.06 147.268 24.06V23.88C147.268 22.8533 146.981 22.0667 146.408 21.52C145.834 20.96 145.094 20.68 144.188 20.68C143.308 20.68 142.574 20.96 141.988 21.52C141.414 22.0667 141.128 22.8533 141.128 23.88V24.06C141.128 25.06 141.414 25.8467 141.988 26.42C142.574 26.98 143.308 27.26 144.188 27.26Z" fill="#D9D9D9"/>
<path d="M13 26V23C13 22.7348 13.1054 22.4804 13.2929 22.2929C13.4804 22.1054 13.7348 22 14 22H26C26.2652 22 26.5196 22.1054 26.7071 22.2929C26.8946 22.4804 27 22.7348 27 23V26M20 22V18M25 26H29C29.5523 26 30 26.4477 30 27V31C30 31.5523 29.5523 32 29 32H25C24.4477 32 24 31.5523 24 31V27C24 26.4477 24.4477 26 25 26ZM11 26H15C15.5523 26 16 26.4477 16 27V31C16 31.5523 15.5523 32 15 32H11C10.4477 32 10 31.5523 10 31V27C10 26.4477 10.4477 26 11 26ZM18 12H22C22.5523 12 23 12.4477 23 13V17C23 17.5523 22.5523 18 22 18H18C17.4477 18 17 17.5523 17 17V13C17 12.4477 17.4477 12 18 12Z" stroke="#D9D9D9" stroke-width="2" stroke-linecap="round" stroke-linejoin="round"/>
</svg>
