<svg width="131" height="53" viewBox="0 0 131 53" fill="none" xmlns="http://www.w3.org/2000/svg">
<rect x="0.5" y="0.5" width="120" height="43" rx="9.5" fill="#1A1A1A" stroke="#252525"/>
<path d="M41.46 29V15H47.02C47.8733 15 48.6333 15.1733 49.3 15.52C49.98 15.8533 50.5067 16.3333 50.88 16.96C51.2667 17.5733 51.46 18.3133 51.46 19.18V19.44C51.46 20.3067 51.26 21.0533 50.86 21.68C50.4733 22.3067 49.9467 22.7867 49.28 23.12C48.6133 23.4533 47.86 23.62 47.02 23.62H43.62V29H41.46ZM43.62 21.66H46.8C47.56 21.66 48.1667 21.46 48.62 21.06C49.0733 20.66 49.3 20.1133 49.3 19.42V19.22C49.3 18.5133 49.0733 17.96 48.62 17.56C48.1667 17.16 47.56 16.96 46.8 16.96H43.62V21.66ZM54.7108 33V31.2H60.2108C60.5841 31.2 60.7708 31 60.7708 30.6V27.56H60.4508C60.3308 27.8267 60.1441 28.0867 59.8908 28.34C59.6508 28.58 59.3241 28.78 58.9108 28.94C58.4974 29.1 57.9774 29.18 57.3508 29.18C56.6041 29.18 55.9374 29.0133 55.3508 28.68C54.7641 28.3467 54.3041 27.8733 53.9708 27.26C53.6374 26.6467 53.4708 25.92 53.4708 25.08V19.14H55.5308V24.92C55.5308 25.7733 55.7441 26.4067 56.1708 26.82C56.5974 27.22 57.1908 27.42 57.9508 27.42C58.7908 27.42 59.4641 27.14 59.9708 26.58C60.4908 26.02 60.7508 25.2067 60.7508 24.14V19.14H62.8108V31.02C62.8108 31.62 62.6308 32.1 62.2708 32.46C61.9241 32.82 61.4441 33 60.8308 33H54.7108ZM69.5559 29C68.9559 29 68.4759 28.82 68.1159 28.46C67.7693 28.1 67.5959 27.62 67.5959 27.02V20.88H64.8759V19.14H67.5959V15.88H69.6559V19.14H72.5959V20.88H69.6559V26.66C69.6559 27.06 69.8426 27.26 70.2159 27.26H72.2759V29H69.5559ZM75.0161 29V15H77.0761V20.54H77.3961C77.5294 20.2867 77.7161 20.04 77.9561 19.8C78.2094 19.56 78.5361 19.3667 78.9361 19.22C79.3494 19.06 79.8694 18.98 80.4961 18.98C81.2428 18.98 81.9028 19.1467 82.4761 19.48C83.0628 19.8133 83.5228 20.2867 83.8561 20.9C84.1894 21.5 84.3561 22.2267 84.3561 23.08V29H82.2961V23.24C82.2961 22.3867 82.0828 21.76 81.6561 21.36C81.2294 20.9467 80.6428 20.74 79.8961 20.74C79.0428 20.74 78.3561 21.02 77.8361 21.58C77.3294 22.14 77.0761 22.9533 77.0761 24.02V29H75.0161ZM91.9408 29.28C90.9541 29.28 90.0741 29.08 89.3008 28.68C88.5408 28.2667 87.9408 27.68 87.5008 26.92C87.0608 26.16 86.8408 25.26 86.8408 24.22V23.92C86.8408 22.88 87.0608 21.9867 87.5008 21.24C87.9408 20.48 88.5408 19.8933 89.3008 19.48C90.0741 19.0667 90.9541 18.86 91.9408 18.86C92.9274 18.86 93.8074 19.0667 94.5808 19.48C95.3541 19.8933 95.9608 20.48 96.4008 21.24C96.8408 21.9867 97.0608 22.88 97.0608 23.92V24.22C97.0608 25.26 96.8408 26.16 96.4008 26.92C95.9608 27.68 95.3541 28.2667 94.5808 28.68C93.8074 29.08 92.9274 29.28 91.9408 29.28ZM91.9408 27.44C92.8474 27.44 93.5808 27.1533 94.1408 26.58C94.7141 25.9933 95.0008 25.1867 95.0008 24.16V23.98C95.0008 22.9533 94.7208 22.1533 94.1608 21.58C93.6008 20.9933 92.8608 20.7 91.9408 20.7C91.0474 20.7 90.3141 20.9933 89.7408 21.58C89.1808 22.1533 88.9008 22.9533 88.9008 23.98V24.16C88.9008 25.1867 89.1808 25.9933 89.7408 26.58C90.3141 27.1533 91.0474 27.44 91.9408 27.44ZM99.6255 29V19.14H101.645V20.62H101.965C102.152 20.22 102.485 19.8467 102.965 19.5C103.445 19.1533 104.159 18.98 105.105 18.98C105.852 18.98 106.512 19.1467 107.085 19.48C107.672 19.8133 108.132 20.2867 108.465 20.9C108.799 21.5 108.965 22.2267 108.965 23.08V29H106.905V23.24C106.905 22.3867 106.692 21.76 106.265 21.36C105.839 20.9467 105.252 20.74 104.505 20.74C103.652 20.74 102.965 21.02 102.445 21.58C101.939 22.14 101.685 22.9533 101.685 24.02V29H99.6255Z" fill="#D9D9D9"/>
<path d="M21.8657 12.15L22.6119 12.3167L23.2172 12.5333L23.7065 12.7833L24.0796 13.05L24.3615 13.3333L24.5688 13.6167L24.7015 13.8917L24.7844 14.1417L24.8176 14.3583L24.8342 14.525L24.8259 14.6333V19.0833L24.7844 19.6083L24.6766 20.0667L24.5025 20.45L24.2869 20.7667L24.0381 21.025L23.7645 21.2333L23.4743 21.3917L23.1841 21.5083L22.9104 21.5917L22.6617 21.65L22.4461 21.6833L22.272 21.7H17.3217L16.7496 21.7417L16.2604 21.8583L15.8458 22.0417L15.5058 22.2667L15.2322 22.5333L15.0083 22.825L14.8425 23.125L14.7181 23.4333L14.6352 23.725L14.5771 23.9917L14.5439 24.2167L14.5274 24.3917V26.9417H12.6783L12.5041 26.9167L12.272 26.8583L12.0066 26.7583L11.7164 26.6083L11.4179 26.3917L11.1194 26.0917L10.8292 25.7083L10.5638 25.2167L10.3317 24.6083L10.1575 23.875L10.0415 23L10 21.975L10.0498 20.9583L10.1824 20.0917L10.3814 19.3667L10.6468 18.775L10.9453 18.3L11.2769 17.9333L11.6252 17.6583L11.9735 17.4583L12.3051 17.325L12.6036 17.2417L12.869 17.2L13.068 17.1917H13.2007L13.2504 17.2H20.0166V16.5083H15.1741L15.1658 14.2167L15.1493 13.9083L15.1907 13.625L15.2819 13.3667L15.4229 13.1333L15.6302 12.9167L15.8872 12.725L16.2023 12.5583L16.5672 12.4083L16.9901 12.2833L17.471 12.1833L18.0017 12.1L18.5904 12.05L19.2289 12.0167L19.9254 12L20.9784 12.0417L21.8657 12.15ZM16.6418 13.8L16.4511 14.075L16.3847 14.4167L16.4511 14.7583L16.6418 15.0417L16.9154 15.225L17.2554 15.3L17.5954 15.225L17.869 15.0417L18.0597 14.7583L18.126 14.4167L18.0597 14.075L17.869 13.8L17.5954 13.6167L17.2554 13.5417L16.9154 13.6167L16.6418 13.8ZM27.4959 17.0917L27.728 17.1417L27.9934 17.2417L28.2836 17.3917L28.5821 17.6167L28.8806 17.9083L29.1708 18.3L29.4362 18.7917L29.6683 19.4L29.8425 20.1333L29.9585 21L30 22.025L29.9502 23.05L29.8176 23.9167L29.6186 24.6333L29.3532 25.225L29.0547 25.7L28.7231 26.075L28.3748 26.35L28.0265 26.55L27.6949 26.6833L27.3964 26.7583L27.131 26.8L26.932 26.8167L26.7993 26.8083H19.9834V27.4917H24.8259L24.8342 29.7917L24.8507 30.0917L24.8093 30.375L24.7181 30.6333L24.5771 30.875L24.3698 31.0833L24.1128 31.2833L23.7977 31.45L23.4328 31.5917L23.01 31.7167L22.529 31.825L21.9983 31.9L21.4096 31.9583L20.7711 31.9917L20.0746 32L19.0216 31.9667L18.1343 31.85L17.3881 31.6833L16.7828 31.475L16.2935 31.225L15.9204 30.95L15.6385 30.6667L15.4312 30.3833L15.2985 30.1083L15.2156 29.8583L15.1824 29.65L15.1658 29.4833L15.1741 29.375V24.925L15.2156 24.3917L15.3234 23.9417L15.4975 23.5583L15.7131 23.2417L15.9619 22.975L16.2355 22.775L16.5257 22.6083L16.8159 22.4917L17.0896 22.4083L17.3383 22.3583L17.5539 22.325L17.728 22.3083L17.8358 22.3H22.6783L23.2504 22.2583L23.7396 22.1417L24.1542 21.9667L24.4942 21.7333L24.7678 21.4667L24.9917 21.175L25.1575 20.875L25.2819 20.575L25.3648 20.2833L25.4229 20.0167L25.4561 19.7833L25.4726 19.6083V17.0583H27.2056L27.3217 17.0667L27.4959 17.0917ZM22.131 28.9667L21.9403 29.2417L21.874 29.5833L21.9403 29.925L22.131 30.2L22.4046 30.3917L22.7446 30.4583L23.0846 30.3917L23.3582 30.2L23.5489 29.925L23.6153 29.5833L23.5489 29.2417L23.3582 28.9667L23.0846 28.775L22.7446 28.7083L22.4046 28.775L22.131 28.9667Z" fill="#D9D9D9"/>
</svg>
