<svg width="55" height="17" viewBox="0 0 55 17" fill="none" xmlns="http://www.w3.org/2000/svg">
<path d="M6.26 16.24C5.14 16.24 4.06667 16.0933 3.04 15.8C2.01333 15.4933 1.18667 15.1 0.56 14.62L1.66 12.18C2.26 12.6067 2.96667 12.96 3.78 13.24C4.60667 13.5067 5.44 13.64 6.28 13.64C6.92 13.64 7.43333 13.58 7.82 13.46C8.22 13.3267 8.51333 13.1467 8.7 12.92C8.88667 12.6933 8.98 12.4333 8.98 12.14C8.98 11.7667 8.83333 11.4733 8.54 11.26C8.24667 11.0333 7.86 10.8533 7.38 10.72C6.9 10.5733 6.36667 10.44 5.78 10.32C5.20667 10.1867 4.62667 10.0267 4.04 9.84C3.46667 9.65333 2.94 9.41333 2.46 9.12C1.98 8.82667 1.58667 8.44 1.28 7.96C0.986667 7.48 0.84 6.86667 0.84 6.12C0.84 5.32 1.05333 4.59333 1.48 3.94C1.92 3.27333 2.57333 2.74667 3.44 2.36C4.32 1.96 5.42 1.76 6.74 1.76C7.62 1.76 8.48667 1.86667 9.34 2.08C10.1933 2.28 10.9467 2.58667 11.6 3L10.6 5.46C9.94667 5.08667 9.29333 4.81333 8.64 4.64C7.98667 4.45333 7.34667 4.36 6.72 4.36C6.09333 4.36 5.58 4.43333 5.18 4.58C4.78 4.72667 4.49333 4.92 4.32 5.16C4.14667 5.38667 4.06 5.65333 4.06 5.96C4.06 6.32 4.20667 6.61333 4.5 6.84C4.79333 7.05333 5.18 7.22667 5.66 7.36C6.14 7.49333 6.66667 7.62667 7.24 7.76C7.82667 7.89333 8.40667 8.04667 8.98 8.22C9.56667 8.39333 10.1 8.62667 10.58 8.92C11.06 9.21333 11.4467 9.6 11.74 10.08C12.0467 10.56 12.2 11.1667 12.2 11.9C12.2 12.6867 11.98 13.4067 11.54 14.06C11.1 14.7133 10.44 15.24 9.56 15.64C8.69333 16.04 7.59333 16.24 6.26 16.24ZM16.7739 13.8L16.8539 10L21.8739 5.24H25.5939L20.7739 10.14L19.1539 11.46L16.7739 13.8ZM14.1939 16V1.16H17.3139V16H14.1939ZM22.2139 16L18.5739 11.48L20.5339 9.06L25.9939 16H22.2139ZM27.397 16V5.24H30.517V16H27.397ZM28.957 3.74C28.3837 3.74 27.917 3.57333 27.557 3.24C27.197 2.90667 27.017 2.49333 27.017 2C27.017 1.50667 27.197 1.09333 27.557 0.76C27.917 0.426666 28.3837 0.259999 28.957 0.259999C29.5304 0.259999 29.997 0.419999 30.357 0.74C30.717 1.04667 30.897 1.44667 30.897 1.94C30.897 2.46 30.717 2.89333 30.357 3.24C30.0104 3.57333 29.5437 3.74 28.957 3.74ZM33.4127 16V1.16H36.5327V16H33.4127ZM39.4283 16V1.16H42.5483V16H39.4283ZM49.0639 16.16C48.1439 16.16 47.2572 16.0533 46.4039 15.84C45.5639 15.6133 44.8972 15.3333 44.4039 15L45.4439 12.76C45.9372 13.0667 46.5172 13.32 47.1839 13.52C47.8639 13.7067 48.5306 13.8 49.1839 13.8C49.9039 13.8 50.4106 13.7133 50.7039 13.54C51.0106 13.3667 51.1639 13.1267 51.1639 12.82C51.1639 12.5667 51.0439 12.38 50.8039 12.26C50.5772 12.1267 50.2706 12.0267 49.8839 11.96C49.4972 11.8933 49.0706 11.8267 48.6039 11.76C48.1506 11.6933 47.6906 11.6067 47.2239 11.5C46.7572 11.38 46.3306 11.2067 45.9439 10.98C45.5572 10.7533 45.2439 10.4467 45.0039 10.06C44.7772 9.67333 44.6639 9.17333 44.6639 8.56C44.6639 7.88 44.8572 7.28 45.2439 6.76C45.6439 6.24 46.2172 5.83333 46.9639 5.54C47.7106 5.23333 48.6039 5.08 49.6439 5.08C50.3772 5.08 51.1239 5.16 51.8839 5.32C52.6439 5.48 53.2772 5.71333 53.7839 6.02L52.7439 8.24C52.2239 7.93333 51.6972 7.72667 51.1639 7.62C50.6439 7.5 50.1372 7.44 49.6439 7.44C48.9506 7.44 48.4439 7.53333 48.1239 7.72C47.8039 7.90667 47.6439 8.14667 47.6439 8.44C47.6439 8.70667 47.7572 8.90667 47.9839 9.04C48.2239 9.17333 48.5372 9.28 48.9239 9.36C49.3106 9.44 49.7306 9.51333 50.1839 9.58C50.6506 9.63333 51.1172 9.72 51.5839 9.84C52.0506 9.96 52.4706 10.1333 52.8439 10.36C53.2306 10.5733 53.5439 10.8733 53.7839 11.26C54.0239 11.6333 54.1439 12.1267 54.1439 12.74C54.1439 13.4067 53.9439 14 53.5439 14.52C53.1439 15.0267 52.5639 15.4267 51.8039 15.72C51.0572 16.0133 50.1439 16.16 49.0639 16.16Z" fill="#D9D9D9"/>
</svg>
