<svg width="113" height="53" viewBox="0 0 113 53" fill="none" xmlns="http://www.w3.org/2000/svg">
<rect x="0.5" y="0.5" width="102" height="43" rx="9.5" fill="#1A1A1A" stroke="#252525"/>
<path d="M46.7 29.28C45.5933 29.28 44.64 29.08 43.84 28.68C43.0533 28.28 42.44 27.7067 42 26.96C41.5733 26.2 41.36 25.28 41.36 24.2V15H43.54V24.26C43.54 25.2467 43.8133 26.0067 44.36 26.54C44.9067 27.0733 45.6867 27.34 46.7 27.34C47.7133 27.34 48.4933 27.0733 49.04 26.54C49.5867 26.0067 49.86 25.2467 49.86 24.26V15H52.02V24.2C52.02 25.28 51.8067 26.2 51.38 26.96C50.9533 27.7067 50.34 28.28 49.54 28.68C48.74 29.08 47.7933 29.28 46.7 29.28ZM54.8389 29V15H56.9989V29H54.8389ZM58.297 33L64.177 15H66.237L60.357 33H58.297ZM72.7352 29.28C71.6285 29.28 70.6752 29.08 69.8752 28.68C69.0885 28.28 68.4752 27.7067 68.0352 26.96C67.6085 26.2 67.3952 25.28 67.3952 24.2V15H69.5752V24.26C69.5752 25.2467 69.8485 26.0067 70.3952 26.54C70.9418 27.0733 71.7218 27.34 72.7352 27.34C73.7485 27.34 74.5285 27.0733 75.0752 26.54C75.6218 26.0067 75.8952 25.2467 75.8952 24.26V15H78.0552V24.2C78.0552 25.28 77.8418 26.2 77.4152 26.96C76.9885 27.7067 76.3752 28.28 75.5752 28.68C74.7752 29.08 73.8285 29.28 72.7352 29.28ZM79.9541 29L84.2541 21.94L80.0141 15H82.4941L85.6541 20.4H85.9741L89.1541 15H91.6341L87.3941 21.94L91.6941 29H89.1941L85.9741 23.48H85.6541L82.4341 29H79.9541Z" fill="#D9D9D9"/>
<path d="M16.6667 13H11.1111C10.4975 13 10 13.4975 10 14.1111V21.8889C10 22.5025 10.4975 23 11.1111 23H16.6667C17.2803 23 17.7778 22.5025 17.7778 21.8889V14.1111C17.7778 13.4975 17.2803 13 16.6667 13Z" stroke="#D9D9D9" stroke-width="2" stroke-linecap="round" stroke-linejoin="round"/>
<path d="M28.8889 13H23.3333C22.7197 13 22.2222 13.4975 22.2222 14.1111V17.4444C22.2222 18.0581 22.7197 18.5556 23.3333 18.5556H28.8889C29.5025 18.5556 30 18.0581 30 17.4444V14.1111C30 13.4975 29.5025 13 28.8889 13Z" stroke="#D9D9D9" stroke-width="2" stroke-linecap="round" stroke-linejoin="round"/>
<path d="M28.8889 23H23.3333C22.7197 23 22.2222 23.4975 22.2222 24.1111V31.8889C22.2222 32.5025 22.7197 33 23.3333 33H28.8889C29.5025 33 30 32.5025 30 31.8889V24.1111C30 23.4975 29.5025 23 28.8889 23Z" stroke="#D9D9D9" stroke-width="2" stroke-linecap="round" stroke-linejoin="round"/>
<path d="M16.6667 27.4444H11.1111C10.4975 27.4444 10 27.9419 10 28.5556V31.8889C10 32.5025 10.4975 33 11.1111 33H16.6667C17.2803 33 17.7778 32.5025 17.7778 31.8889V28.5556C17.7778 27.9419 17.2803 27.4444 16.6667 27.4444Z" stroke="#D9D9D9" stroke-width="2" stroke-linecap="round" stroke-linejoin="round"/>
</svg>
