<svg width="49" height="44" viewBox="0 0 49 44" fill="none" xmlns="http://www.w3.org/2000/svg">
<rect x="0.5" y="0.5" width="43" height="43" rx="9.5" fill="#1A1A1A" stroke="#252525"/>
<path d="M32 22C32 27.5228 27.5228 32 22 32M32 22C32 16.4772 27.5228 12 22 12M32 22H12M22 32C16.4772 32 12 27.5228 12 22M22 32C19.4322 29.3038 18 25.7233 18 22C18 18.2767 19.4322 14.6962 22 12M22 32C24.5678 29.3038 26 25.7233 26 22C26 18.2767 24.5678 14.6962 22 12M12 22C12 16.4772 16.4772 12 22 12" stroke="#D9D9D9" stroke-width="2" stroke-linecap="round" stroke-linejoin="round"/>
</svg>
